<?xml version="1.0" standalone="no"?>
<!DOCTYPE svg PUBLIC "-//W3C//DTD SVG 20010904//EN"
 "http://www.w3.org/TR/2001/REC-SVG-20010904/DTD/svg10.dtd">
<svg version="1.0" xmlns="http://www.w3.org/2000/svg"
 width="487.000000pt" height="312.000000pt" viewBox="0 0 487.000000 312.000000"
 preserveAspectRatio="xMidYMid meet">

<g transform="translate(0.000000,312.000000) scale(0.100000,-0.100000)"
fill="#000000" stroke="none">
<path d="M0 3100 c0 -20 5 -20 2313 -20 2025 0 2313 -2 2323 -15 9 -12 14 -8
27 20 l17 35 -2340 0 c-2335 0 -2340 0 -2340 -20z"/>
<path d="M4692 3096 c-8 -19 -7 -26 9 -39 10 -9 19 -13 19 -7 0 5 -4 12 -10
15 -25 15 -4 20 75 17 80 -3 85 -2 85 17 0 20 -6 21 -83 21 -78 0 -85 -2 -95
-24z"/>
<path d="M4661 3033 c-10 -26 -10 -27 4 -9 8 11 15 23 15 28 0 15 -7 8 -19
-19z"/>
<path d="M4603 3027 c0 -8 6 -14 14 -14 9 0 10 4 2 14 -6 7 -12 13 -14 13 -1
0 -2 -6 -2 -13z"/>
<path d="M4600 2980 c-6 -11 -8 -20 -6 -20 3 0 10 9 16 20 6 11 8 20 6 20 -3
0 -10 -9 -16 -20z"/>
<path d="M1328 2740 c-3 -16 -1 -30 4 -30 4 0 8 14 8 30 0 17 -2 30 -4 30 -2
0 -6 -13 -8 -30z"/>
<path d="M1324 2503 c-4 -65 -9 -121 -10 -125 -1 -5 -2 -15 -3 -23 -1 -11 -13
-15 -41 -15 -30 0 -40 -4 -40 -16 0 -9 -7 -22 -17 -29 -14 -11 -16 -36 -14
-206 l1 -194 -43 -155 -44 -155 -77 2 c-42 2 -86 8 -97 13 -15 9 -21 7 -25 -5
-3 -8 -17 -15 -30 -15 -15 0 -24 -6 -24 -15 0 -8 -6 -15 -13 -15 -10 0 -13
-59 -14 -292 l-1 -293 -39 -140 -40 -140 -61 -3 -62 -3 0 396 0 395 -54 0
c-49 0 -55 2 -58 22 -3 20 -8 22 -61 19 -52 -2 -59 0 -64 18 -3 12 -9 21 -14
21 -5 0 -9 7 -9 15 0 12 -4 11 -20 -5 -11 -11 -20 -27 -20 -35 0 -8 -9 -15
-20 -15 -13 0 -20 -7 -20 -20 0 -11 -7 -20 -15 -20 -18 0 -17 15 -17 -282 0
-126 -2 -228 -5 -228 -3 0 -31 19 -64 41 -49 35 -59 47 -59 71 l0 29 -62 -3
-62 -3 -3 -42 c-2 -36 0 -42 17 -40 13 1 20 9 21 22 1 18 2 18 7 -3 4 -13 10
-23 15 -23 4 1 6 -2 5 -6 -2 -5 -6 -7 -10 -5 -5 1 -8 -20 -8 -46 0 -41 -3 -48
-21 -49 -12 -1 -18 3 -16 10 3 7 9 11 14 10 5 -1 10 15 11 37 2 31 -1 38 -16
36 -15 -3 -17 -21 -18 -200 0 -148 3 -199 12 -207 7 -6 17 -9 21 -6 4 2 17 1
28 -4 15 -7 9 -8 -22 -6 l-43 3 0 -288 0 -288 2435 0 2435 0 0 375 c-1 234 -4
375 -10 375 -14 0 -12 27 3 33 9 4 9 6 0 6 -15 1 -18 31 -3 31 6 0 10 20 10
45 0 38 -3 45 -20 45 -11 0 -20 7 -20 15 0 8 6 12 14 9 8 -3 17 -1 21 5 3 7
-2 11 -14 11 -12 0 -21 7 -21 16 0 8 5 12 10 9 6 -3 15 -3 21 1 8 4 7 9 -2 14
-10 7 -10 12 0 23 9 12 9 16 -1 20 -10 4 -11 7 0 18 7 7 12 39 12 76 0 60 -4
69 -32 64 -5 0 -8 4 -8 9 0 6 9 10 20 10 19 0 21 5 18 78 l-3 77 -40 0 c-34 0
-40 -3 -43 -22 -3 -18 -10 -23 -34 -23 l-31 0 6 -175 6 -175 -54 0 -55 0 0
139 0 139 -42 7 c-65 10 -110 11 -145 3 l-33 -8 0 260 0 259 -32 3 c-18 2 -33
8 -33 13 0 6 15 11 33 13 24 2 32 8 32 23 0 17 -8 19 -87 21 -49 2 -112 2
-140 2 -45 -1 -53 1 -53 17 0 11 -6 19 -14 19 -10 0 -16 14 -19 43 l-4 42 -1
-42 c-2 -36 -5 -43 -22 -43 -13 0 -20 -7 -20 -20 0 -16 -7 -20 -30 -20 -23 0
-30 -4 -30 -20 0 -16 7 -20 30 -20 20 0 30 -5 30 -15 0 -10 -10 -15 -30 -15
l-30 0 0 -121 c0 -92 -3 -120 -12 -117 -7 3 -15 15 -16 28 -7 43 -24 50 -121
50 -54 0 -91 -4 -91 -10 0 -5 -18 -10 -40 -10 -38 0 -40 -2 -40 -30 0 -27 -3
-30 -32 -30 l-33 0 3 -385 c2 -304 -1 -385 -10 -384 -7 0 -33 8 -57 18 l-44
18 2 471 c2 422 1 472 -13 472 -11 0 -16 9 -16 30 0 23 -4 30 -20 30 -15 0
-20 7 -20 25 0 14 -4 25 -9 25 -5 0 -12 10 -14 23 l-4 22 -2 -22 c0 -13 -5
-23 -11 -23 -5 0 -10 -11 -10 -25 0 -24 -3 -25 -55 -25 -55 0 -55 0 -55 -31 0
-31 0 -31 -50 -27 l-50 3 0 -156 0 -156 -85 -67 -85 -67 0 -135 0 -134 -60 0
c-47 0 -60 -3 -60 -15 0 -13 -11 -15 -62 -13 l-61 3 2 128 2 127 -105 0 -105
0 -3 113 -3 112 -92 3 c-85 2 -93 4 -93 22 0 17 -7 20 -44 20 -33 0 -46 5 -51
18 -6 16 -7 16 -19 0 -14 -19 -26 -14 -26 12 0 15 -8 15 -105 -4 -97 -19 -105
-22 -105 -43 0 -19 -5 -23 -30 -23 l-30 0 0 -345 0 -345 -100 0 -101 0 2 143
1 142 -46 3 c-38 3 -46 7 -46 23 0 16 -7 19 -50 19 -31 0 -66 -8 -91 -20 l-39
-21 0 597 c0 328 -2 599 -6 603 -3 3 -11 6 -17 6 -7 0 -13 10 -15 23 -3 17
-10 22 -35 22 -20 0 -36 7 -43 18 -7 10 -12 70 -13 137 -1 66 -4 121 -6 123
-1 2 -7 -50 -11 -115z m33 -285 c-3 -8 -6 -5 -6 6 -1 11 2 17 5 13 3 -3 4 -12
1 -19z m-10 -70 c-3 -8 -6 -5 -6 6 -1 11 2 17 5 13 3 -3 4 -12 1 -19z m90 -60
c-3 -7 -5 -2 -5 12 0 14 2 19 5 13 2 -7 2 -19 0 -25z m-210 0 c-3 -8 -6 -5 -6
6 -1 11 2 17 5 13 3 -3 4 -12 1 -19z m129 -48 c0 -11 -4 -20 -8 -20 -10 0 -11
24 -1 33 9 9 9 10 9 -13z m77 0 c3 -13 0 -20 -8 -20 -8 0 -13 9 -12 20 1 11 4
20 8 20 4 0 9 -9 12 -20z m-196 -12 c-3 -8 -6 -5 -6 6 -1 11 2 17 5 13 3 -3 4
-12 1 -19z m50 0 c-3 -8 -6 -5 -6 6 -1 11 2 17 5 13 3 -3 4 -12 1 -19z m93
-50 c0 -18 -2 -20 -9 -8 -6 8 -7 18 -5 22 9 14 14 9 14 -14z m40 1 c0 -11 -4
-18 -10 -14 -5 3 -7 12 -3 20 7 21 13 19 13 -6z m-183 -11 c-3 -8 -6 -5 -6 6
-1 11 2 17 5 13 3 -3 4 -12 1 -19z m99 -65 c-11 -11 -19 6 -11 24 8 17 8 17
12 0 3 -10 2 -21 -1 -24z m44 17 c0 -11 -4 -20 -9 -20 -7 0 -8 17 -2 38 4 10
11 -2 11 -18z m56 -3 c1 -9 -4 -17 -11 -17 -14 0 -27 25 -17 34 10 10 25 1 28
-17z m-159 -9 c-3 -8 -6 -5 -6 6 -1 11 2 17 5 13 3 -3 4 -12 1 -19z m49 -65
c-11 -11 -19 6 -11 24 8 17 8 17 12 0 3 -10 2 -21 -1 -24z m44 11 c0 -8 -4
-14 -10 -14 -5 0 -10 9 -10 21 0 11 5 17 10 14 6 -3 10 -13 10 -21z m-123 -6
c-3 -8 -6 -5 -6 6 -1 11 2 17 5 13 3 -3 4 -12 1 -19z m40 0 c-3 -8 -6 -5 -6 6
-1 11 2 17 5 13 3 -3 4 -12 1 -19z m110 0 c-3 -8 -6 -5 -6 6 -1 11 2 17 5 13
3 -3 4 -12 1 -19z m-117 -53 c0 -8 -4 -15 -10 -15 -5 0 -10 7 -10 15 0 8 5 15
10 15 6 0 10 -7 10 -15z m87 -7 c-3 -8 -6 -5 -6 6 -1 11 2 17 5 13 3 -3 4 -12
1 -19z m50 0 c-3 -8 -6 -5 -6 6 -1 11 2 17 5 13 3 -3 4 -12 1 -19z m-17 -54
c0 -8 -4 -14 -10 -14 -5 0 -10 9 -10 21 0 11 5 17 10 14 6 -3 10 -13 10 -21z
m-153 -6 c-3 -8 -6 -5 -6 6 -1 11 2 17 5 13 3 -3 4 -12 1 -19z m30 0 c-3 -8
-6 -5 -6 6 -1 11 2 17 5 13 3 -3 4 -12 1 -19z m53 7 c0 -8 -7 -15 -15 -15 -8
0 -15 7 -15 15 0 8 7 15 15 15 8 0 15 -7 15 -15z m27 -7 c-3 -8 -6 -5 -6 6 -1
11 2 17 5 13 3 -3 4 -12 1 -19z m2700 -15 c-3 -10 -5 -4 -5 12 0 17 2 24 5 18
2 -7 2 -21 0 -30z m20 0 c-3 -10 -5 -4 -5 12 0 17 2 24 5 18 2 -7 2 -21 0 -30z
m153 11 c0 -14 -4 -23 -10 -19 -5 3 -10 15 -10 26 0 10 5 19 10 19 6 0 10 -12
10 -26z m17 -11 c-3 -10 -5 -4 -5 12 0 17 2 24 5 18 2 -7 2 -21 0 -30z m20 0
c-3 -10 -5 -4 -5 12 0 17 2 24 5 18 2 -7 2 -21 0 -30z m20 0 c-3 -10 -5 -4 -5
12 0 17 2 24 5 18 2 -7 2 -21 0 -30z m60 0 c-3 -10 -5 -4 -5 12 0 17 2 24 5
18 2 -7 2 -21 0 -30z m-1160 -30 c-3 -10 -5 -4 -5 12 0 17 2 24 5 18 2 -7 2
-21 0 -30z m93 11 c0 -8 -10 -14 -25 -14 -17 0 -25 5 -25 18 0 14 2 15 10 2 8
-13 10 -13 10 2 0 11 5 15 15 12 8 -4 15 -12 15 -20z m97 -6 c-3 -7 -5 -2 -5
12 0 14 2 19 5 13 2 -7 2 -19 0 -25z m70 -5 c-3 -10 -5 -4 -5 12 0 17 2 24 5
18 2 -7 2 -21 0 -30z m-90 5 c-3 -8 -6 -5 -6 6 -1 11 2 17 5 13 3 -3 4 -12 1
-19z m-2110 -20 c-3 -8 -6 -5 -6 6 -1 11 2 17 5 13 3 -3 4 -12 1 -19z m53 7
c0 -8 -4 -15 -10 -15 -5 0 -10 7 -10 15 0 8 5 15 10 15 6 0 10 -7 10 -15z m58
3 c-6 -18 -25 -21 -25 -3 0 8 7 15 15 15 7 0 12 -5 10 -12z m62 -3 c0 -8 -4
-15 -10 -15 -5 0 -10 7 -10 15 0 8 5 15 10 15 6 0 10 -7 10 -15z m27 -7 c-3
-8 -6 -5 -6 6 -1 11 2 17 5 13 3 -3 4 -12 1 -19z m2570 -25 c-3 -10 -5 -4 -5
12 0 17 2 24 5 18 2 -7 2 -21 0 -30z m20 0 c-3 -10 -5 -4 -5 12 0 17 2 24 5
18 2 -7 2 -21 0 -30z m20 0 c-3 -10 -5 -4 -5 12 0 17 2 24 5 18 2 -7 2 -21 0
-30z m66 7 c-7 -28 -13 -25 -13 6 0 14 4 23 9 20 5 -3 7 -15 4 -26z m107 3 c0
-16 -6 -23 -20 -23 -18 0 -29 28 -15 42 14 14 35 2 35 -19z m57 -10 c-3 -10
-5 -4 -5 12 0 17 2 24 5 18 2 -7 2 -21 0 -30z m60 0 c-3 -10 -5 -4 -5 12 0 17
2 24 5 18 2 -7 2 -21 0 -30z m20 0 c-3 -10 -5 -4 -5 12 0 17 2 24 5 18 2 -7 2
-21 0 -30z m-1110 -25 c-3 -7 -5 -2 -5 12 0 14 2 19 5 13 2 -7 2 -19 0 -25z
m93 12 c0 -11 -2 -20 -4 -20 -2 0 -6 9 -9 20 -3 11 -1 20 4 20 5 0 9 -9 9 -20z
m27 -12 c-3 -7 -5 -2 -5 12 0 14 2 19 5 13 2 -7 2 -19 0 -25z m43 25 c0 -5 -5
-15 -10 -23 -8 -12 -10 -11 -10 8 0 12 5 22 10 22 6 0 10 -3 10 -7z m27 -25
c-3 -7 -5 -2 -5 12 0 14 2 19 5 13 2 -7 2 -19 0 -25z m-2197 -2 c0 -8 -7 -16
-15 -20 -10 -4 -15 1 -15 14 0 11 7 20 15 20 8 0 15 -6 15 -14z m40 -1 c0 -8
-4 -15 -10 -15 -5 0 -10 7 -10 15 0 8 5 15 10 15 6 0 10 -7 10 -15z m27 -7
c-3 -8 -6 -5 -6 6 -1 11 2 17 5 13 3 -3 4 -12 1 -19z m133 7 c0 -8 -4 -15 -10
-15 -5 0 -13 -1 -17 -2 -3 -2 -7 5 -9 15 -1 11 4 17 17 17 10 0 19 -7 19 -15z
m2627 -52 c-3 -10 -5 -4 -5 12 0 17 2 24 5 18 2 -7 2 -21 0 -30z m20 0 c-3
-10 -5 -4 -5 12 0 17 2 24 5 18 2 -7 2 -21 0 -30z m20 0 c-3 -10 -5 -4 -5 12
0 17 2 24 5 18 2 -7 2 -21 0 -30z m33 12 c0 -8 -4 -17 -10 -20 -6 -4 -10 5
-10 20 0 15 4 24 10 20 6 -3 10 -12 10 -20z m60 2 c0 -16 -6 -23 -20 -23 -14
0 -20 7 -20 23 0 16 6 23 20 23 14 0 20 -7 20 -23z m37 -14 c-3 -10 -5 -4 -5
12 0 17 2 24 5 18 2 -7 2 -21 0 -30z m20 0 c-3 -10 -5 -4 -5 12 0 17 2 24 5
18 2 -7 2 -21 0 -30z m20 0 c-3 -10 -5 -4 -5 12 0 17 2 24 5 18 2 -7 2 -21 0
-30z m60 0 c-3 -10 -5 -4 -5 12 0 17 2 24 5 18 2 -7 2 -21 0 -30z m-1137 5 c0
-10 -7 -18 -15 -18 -8 0 -15 8 -15 18 0 10 7 19 15 19 8 0 15 -9 15 -19z m27
-10 c-3 -7 -5 -2 -5 12 0 14 2 19 5 13 2 -7 2 -19 0 -25z m40 0 c-3 -7 -5 -2
-5 12 0 14 2 19 5 13 2 -7 2 -19 0 -25z m30 0 c-3 -7 -5 -2 -5 12 0 14 2 19 5
13 2 -7 2 -19 0 -25z m43 12 c0 -11 -4 -20 -9 -20 -5 0 -7 9 -4 20 3 11 7 20
9 20 2 0 4 -9 4 -20z m47 -12 c-3 -7 -5 -2 -5 12 0 14 2 19 5 13 2 -7 2 -19 0
-25z m70 0 c-3 -7 -5 -2 -5 12 0 14 2 19 5 13 2 -7 2 -19 0 -25z m-2230 -10
c-3 -8 -6 -5 -6 6 -1 11 2 17 5 13 3 -3 4 -12 1 -19z m63 4 c0 -10 -7 -19 -15
-19 -8 0 -15 9 -15 19 0 10 7 18 15 18 8 0 15 -8 15 -18z m40 -2 c0 -11 -4
-20 -10 -20 -5 0 -10 9 -10 20 0 11 5 20 10 20 6 0 10 -9 10 -20z m70 -1 c0
-15 -5 -20 -22 -17 -34 5 -37 38 -4 38 20 0 26 -5 26 -21z m1797 -56 c-3 -10
-5 -4 -5 12 0 17 2 24 5 18 2 -7 2 -21 0 -30z m150 0 c-3 -10 -5 -4 -5 12 0
17 2 24 5 18 2 -7 2 -21 0 -30z m660 0 c-3 -10 -5 -4 -5 12 0 17 2 24 5 18 2
-7 2 -21 0 -30z m20 0 c-3 -10 -5 -4 -5 12 0 17 2 24 5 18 2 -7 2 -21 0 -30z
m20 0 c-3 -10 -5 -4 -5 12 0 17 2 24 5 18 2 -7 2 -21 0 -30z m70 7 c-2 -29
-17 -24 -17 6 0 14 4 23 9 19 6 -3 9 -14 8 -25z m63 5 c0 -14 -4 -25 -10 -25
-5 0 -10 11 -10 25 0 14 5 25 10 25 6 0 10 -11 10 -25z m40 0 c0 -14 -4 -25
-10 -25 -5 0 -10 11 -10 25 0 14 5 25 10 25 6 0 10 -11 10 -25z m37 -12 c-3
-10 -5 -4 -5 12 0 17 2 24 5 18 2 -7 2 -21 0 -30z m20 0 c-3 -10 -5 -4 -5 12
0 17 2 24 5 18 2 -7 2 -21 0 -30z m40 0 c-3 -10 -5 -4 -5 12 0 17 2 24 5 18 2
-7 2 -21 0 -30z m20 0 c-3 -10 -5 -4 -5 12 0 17 2 24 5 18 2 -7 2 -21 0 -30z
m20 0 c-3 -10 -5 -4 -5 12 0 17 2 24 5 18 2 -7 2 -21 0 -30z m-1087 12 c0 -8
-4 -15 -10 -15 -5 0 -7 7 -4 15 4 8 8 15 10 15 2 0 4 -7 4 -15z m-2320 -21 c0
-8 -10 -14 -25 -14 -26 0 -35 25 -12 33 18 6 37 -3 37 -19z m100 4 c0 -10 -7
-18 -15 -18 -8 0 -15 8 -15 18 0 10 7 19 15 19 8 0 15 -9 15 -19z m180 8 c0
-8 -4 -18 -10 -21 -5 -3 -10 -4 -10 -1 0 2 -3 11 -6 20 -4 11 -1 16 10 16 9 0
16 -6 16 -14z m37 -8 c-3 -8 -6 -5 -6 6 -1 11 2 17 5 13 3 -3 4 -12 1 -19z
m53 2 c0 -11 -4 -20 -10 -20 -5 0 -10 9 -10 20 0 11 5 20 10 20 6 0 10 -9 10
-20z m2380 10 c0 -5 -4 -10 -10 -10 -5 0 -10 5 -10 10 0 6 5 10 10 10 6 0 10
-4 10 -10z m70 0 c0 -5 -4 -10 -10 -10 -5 0 -10 5 -10 10 0 6 5 10 10 10 6 0
10 -4 10 -10z m110 0 c0 -5 -4 -10 -10 -10 -5 0 -10 5 -10 10 0 6 5 10 10 10
6 0 10 -4 10 -10z m-3013 -15 c0 -8 -4 -15 -9 -15 -4 0 -8 7 -8 15 0 8 4 15 8
15 5 0 9 -7 9 -15z m2821 -22 c-10 -2 -26 -2 -35 0 -10 3 -2 5 17 5 19 0 27
-2 18 -5z m192 3 c0 -2 -13 -6 -30 -8 -16 -3 -30 -1 -30 4 0 4 14 8 30 8 17 0
30 -2 30 -4z m-683 -38 c-3 -7 -5 -2 -5 12 0 14 2 19 5 13 2 -7 2 -19 0 -25z
m30 0 c-3 -7 -5 -2 -5 12 0 14 2 19 5 13 2 -7 2 -19 0 -25z m163 12 c0 -11 -7
-20 -15 -20 -8 0 -15 9 -15 20 0 11 7 20 15 20 8 0 15 -9 15 -20z m617 -27
c-3 -10 -5 -2 -5 17 0 19 2 27 5 18 2 -10 2 -26 0 -35z m40 0 c-3 -10 -5 -2
-5 17 0 19 2 27 5 18 2 -10 2 -26 0 -35z m270 0 c-3 -10 -5 -2 -5 17 0 19 2
27 5 18 2 -10 2 -26 0 -35z m-3390 5 c-3 -7 -5 -2 -5 12 0 14 2 19 5 13 2 -7
2 -19 0 -25z m123 14 c0 -13 -8 -18 -25 -18 -17 0 -25 5 -25 18 0 13 8 18 25
18 17 0 25 -5 25 -18z m27 -14 c-3 -7 -5 -2 -5 12 0 14 2 19 5 13 2 -7 2 -19
0 -25z m190 0 c-3 -7 -5 -2 -5 12 0 14 2 19 5 13 2 -7 2 -19 0 -25z m93 11 c0
-25 -33 -22 -38 4 -2 12 3 17 17 17 15 0 21 -6 21 -21z m27 -11 c-3 -7 -5 -2
-5 12 0 14 2 19 5 13 2 -7 2 -19 0 -25z m30 17 c0 -8 -4 -15 -9 -15 -4 0 -8 7
-8 15 0 8 4 15 8 15 5 0 9 -7 9 -15z m2650 -22 c-3 -10 -5 -4 -5 12 0 17 2 24
5 18 2 -7 2 -21 0 -30z m53 18 c0 -11 -4 -23 -10 -26 -6 -4 -10 5 -10 19 0 14
5 26 10 26 6 0 10 -9 10 -19z m60 0 c0 -10 -9 -21 -20 -24 -16 -4 -20 0 -20
19 0 17 6 24 20 24 13 0 20 -7 20 -19z m80 -8 c0 -22 -2 -25 -10 -13 -8 12
-10 12 -10 1 0 -20 -13 -5 -17 19 -2 14 3 20 17 20 15 0 20 -7 20 -27z m-520
9 c0 -10 -46 -9 -56 1 -4 4 7 7 24 7 18 0 32 -4 32 -8z m70 0 c0 -4 -9 -8 -20
-9 -11 -1 -20 2 -20 8 0 5 9 9 20 9 11 0 20 -4 20 -8z m-1772 -20 c2 -7 -6
-12 -17 -12 -12 0 -21 6 -21 14 0 17 32 15 38 -2z m100 -1 c-4 -19 -22 -18
-26 2 -2 7 4 14 13 14 9 0 15 -7 13 -16z m59 -13 c-3 -7 -5 -2 -5 12 0 14 2
19 5 13 2 -7 2 -19 0 -25z m-232 12 c3 -5 1 -10 -4 -10 -6 0 -11 5 -11 10 0 6
2 10 4 10 3 0 8 -4 11 -10z m315 0 c0 -5 -7 -10 -15 -10 -8 0 -15 5 -15 10 0
6 7 10 15 10 8 0 15 -4 15 -10z m210 0 c0 -5 -4 -10 -10 -10 -5 0 -10 5 -10
10 0 6 5 10 10 10 6 0 10 -4 10 -10z m-2213 -22 c-3 -8 -6 -5 -6 6 -1 11 2 17
5 13 3 -3 4 -12 1 -19z m98 1 c-8 -12 -55 -12 -55 0 0 10 39 20 53 13 4 -2 5
-8 2 -13z m115 4 c0 -7 -9 -13 -20 -13 -19 0 -26 11 -15 22 10 10 35 4 35 -9z
m67 -5 c-3 -8 -6 -5 -6 6 -1 11 2 17 5 13 3 -3 4 -12 1 -19z m3213 12 c0 -5
-4 -10 -10 -10 -5 0 -10 5 -10 10 0 6 5 10 10 10 6 0 10 -4 10 -10z m110 0 c0
-5 -13 -10 -30 -10 -16 0 -30 4 -30 8 0 4 14 9 30 10 17 1 30 -2 30 -8z
m-2903 -32 c-3 -7 -5 -2 -5 12 0 14 2 19 5 13 2 -7 2 -19 0 -25z m2243 6 c0
-8 -4 -14 -10 -14 -5 0 -10 9 -10 21 0 11 5 17 10 14 6 -3 10 -13 10 -21z m27
-6 c-3 -7 -5 -2 -5 12 0 14 2 19 5 13 2 -7 2 -19 0 -25z m39 7 c1 -8 -2 -15
-7 -15 -5 0 -9 10 -9 22 0 23 12 17 16 -7z m54 5 c0 -11 -4 -20 -10 -20 -5 0
-10 9 -10 20 0 11 5 20 10 20 6 0 10 -9 10 -20z m-2460 -5 c0 -8 -7 -15 -15
-15 -8 0 -15 7 -15 15 0 8 7 15 15 15 8 0 15 -7 15 -15z m70 0 c0 -9 -9 -15
-25 -15 -16 0 -25 6 -25 15 0 9 9 15 25 15 16 0 25 -6 25 -15z m57 -7 c-3 -8
-6 -5 -6 6 -1 11 2 17 5 13 3 -3 4 -12 1 -19z m223 2 c0 -11 -6 -20 -14 -20
-9 0 -14 9 -13 20 1 11 7 20 14 20 7 0 13 -9 13 -20z m50 0 c0 -11 -7 -20 -15
-20 -8 0 -15 2 -15 4 0 2 -3 11 -6 20 -4 12 0 16 15 16 14 0 21 -6 21 -20z
m27 -12 c-3 -7 -5 -2 -5 12 0 14 2 19 5 13 2 -7 2 -19 0 -25z m30 13 c0 -11
-5 -17 -9 -15 -11 7 -10 34 1 34 6 0 9 -9 8 -19z m39 4 c-4 -24 -16 -30 -16
-7 0 12 4 22 9 22 5 0 8 -7 7 -15z m51 -17 c-3 -7 -5 -2 -5 12 0 14 2 19 5 13
2 -7 2 -19 0 -25z m600 0 c-3 -8 -6 -5 -6 6 -1 11 2 17 5 13 3 -3 4 -12 1 -19z
m113 7 c0 -8 -9 -15 -20 -15 -11 0 -20 7 -20 15 0 8 9 15 20 15 11 0 20 -7 20
-15z m27 -17 c-3 -7 -5 -2 -5 12 0 14 2 19 5 13 2 -7 2 -19 0 -25z m30 0 c-3
-7 -5 -2 -5 12 0 14 2 19 5 13 2 -7 2 -19 0 -25z m73 18 c0 -7 -11 -16 -25
-18 -18 -4 -25 -1 -25 11 0 11 9 17 25 19 16 1 25 -3 25 -12z m37 -8 c-3 -8
-6 -5 -6 6 -1 11 2 17 5 13 3 -3 4 -12 1 -19z m83 2 c0 -13 -5 -18 -15 -14
-16 7 -19 17 -8 27 12 13 23 7 23 -13z m47 -2 c-3 -8 -6 -5 -6 6 -1 11 2 17 5
13 3 -3 4 -12 1 -19z m63 7 c0 -8 -7 -15 -15 -15 -16 0 -20 12 -8 23 11 12 23
8 23 -8z m1200 3 c0 -5 -13 -8 -30 -8 -16 0 -30 4 -30 8 0 4 14 8 30 7 17 0
30 -3 30 -7z m66 -1 c4 -4 -2 -7 -14 -7 -12 0 -22 4 -22 9 0 10 26 9 36 -2z
m44 3 c0 -5 -5 -10 -11 -10 -5 0 -7 5 -4 10 3 6 8 10 11 10 2 0 4 -4 4 -10z
m110 -2 c0 -4 -15 -8 -32 -7 -26 0 -29 2 -13 8 25 10 45 10 45 -1z m127 -25
c-3 -10 -5 -4 -5 12 0 17 2 24 5 18 2 -7 2 -21 0 -30z m40 0 c-3 -10 -5 -4 -5
12 0 17 2 24 5 18 2 -7 2 -21 0 -30z m33 12 c0 -14 -4 -25 -10 -25 -5 0 -10
11 -10 25 0 14 5 25 10 25 6 0 10 -11 10 -25z m40 0 c0 -14 -4 -25 -10 -25 -5
0 -10 11 -10 25 0 14 5 25 10 25 6 0 10 -11 10 -25z m60 0 c0 -18 -5 -25 -20
-25 -15 0 -20 7 -20 25 0 18 5 25 20 25 15 0 20 -7 20 -25z m17 -12 c-3 -10
-5 -4 -5 12 0 17 2 24 5 18 2 -7 2 -21 0 -30z m40 0 c-3 -10 -5 -4 -5 12 0 17
2 24 5 18 2 -7 2 -21 0 -30z m40 0 c-3 -10 -5 -4 -5 12 0 17 2 24 5 18 2 -7 2
-21 0 -30z m-3957 2 c0 -8 -4 -15 -10 -15 -5 0 -10 7 -10 15 0 8 5 15 10 15 6
0 10 -7 10 -15z m130 0 c0 -9 -9 -15 -25 -15 -16 0 -25 6 -25 15 0 9 9 15 25
15 16 0 25 -6 25 -15z m27 -7 c-3 -8 -6 -5 -6 6 -1 11 2 17 5 13 3 -3 4 -12 1
-19z m40 0 c-3 -8 -6 -5 -6 6 -1 11 2 17 5 13 3 -3 4 -12 1 -19z m320 -30 c-3
-7 -5 -2 -5 12 0 14 2 19 5 13 2 -7 2 -19 0 -25z m43 12 c0 -11 -4 -20 -10
-20 -5 0 -10 9 -10 20 0 11 5 20 10 20 6 0 10 -9 10 -20z m27 -12 c-3 -7 -5
-2 -5 12 0 14 2 19 5 13 2 -7 2 -19 0 -25z m30 0 c-3 -7 -5 -2 -5 12 0 14 2
19 5 13 2 -7 2 -19 0 -25z m53 12 c0 -11 -7 -20 -15 -20 -8 0 -15 9 -15 20 0
11 7 20 15 20 8 0 15 -9 15 -20z m2290 -5 c0 -13 -6 -22 -15 -22 -9 0 -15 9
-15 22 0 13 6 22 15 22 9 0 15 -9 15 -22z m400 17 c0 -4 -13 -8 -30 -8 -16 -1
-30 2 -30 7 0 5 14 9 30 9 17 0 30 -3 30 -8z m70 -2 c0 -5 -4 -10 -10 -10 -5
0 -10 5 -10 10 0 6 5 10 10 10 6 0 10 -4 10 -10z m90 1 c0 -6 -9 -9 -20 -8
-11 1 -20 5 -20 9 0 4 9 8 20 8 11 0 20 -4 20 -9z m-2653 -33 c-3 -7 -5 -2 -5
12 0 14 2 19 5 13 2 -7 2 -19 0 -25z m33 12 c0 -11 -4 -20 -10 -20 -5 0 -10 9
-10 20 0 11 5 20 10 20 6 0 10 -9 10 -20z m17 -12 c-3 -7 -5 -2 -5 12 0 14 2
19 5 13 2 -7 2 -19 0 -25z m30 0 c-3 -7 -5 -2 -5 12 0 14 2 19 5 13 2 -7 2
-19 0 -25z m43 12 c0 -11 -7 -20 -15 -20 -8 0 -15 9 -15 20 0 11 7 20 15 20 8
0 15 -9 15 -20z m80 0 c0 -13 -7 -20 -20 -20 -13 0 -20 7 -20 20 0 13 7 20 20
20 13 0 20 -7 20 -20z m550 5 c0 -8 -7 -15 -15 -15 -8 0 -15 7 -15 15 0 8 7
15 15 15 8 0 15 -7 15 -15z m60 0 c0 -8 -9 -15 -20 -15 -11 0 -20 7 -20 15 0
8 9 15 20 15 11 0 20 -7 20 -15z m40 0 c0 -8 -4 -15 -10 -15 -5 0 -10 7 -10
15 0 8 5 15 10 15 6 0 10 -7 10 -15z m30 0 c0 -8 -4 -15 -10 -15 -5 0 -7 7 -4
15 4 8 8 15 10 15 2 0 4 -7 4 -15z m37 -7 c-3 -8 -6 -5 -6 6 -1 11 2 17 5 13
3 -3 4 -12 1 -19z m70 0 c-3 -8 -6 -5 -6 6 -1 11 2 17 5 13 3 -3 4 -12 1 -19z
m113 7 c0 -10 -10 -15 -30 -15 -20 0 -30 5 -30 15 0 10 10 15 30 15 20 0 30
-5 30 -15z m50 0 c0 -8 -7 -15 -15 -15 -8 0 -15 7 -15 15 0 8 7 15 15 15 8 0
15 -7 15 -15z m60 0 c0 -8 -9 -15 -20 -15 -11 0 -20 7 -20 15 0 8 9 15 20 15
11 0 20 -7 20 -15z m50 0 c0 -8 -4 -15 -10 -15 -5 0 -10 7 -10 15 0 8 5 15 10
15 6 0 10 -7 10 -15z m780 -6 c0 -11 -4 -18 -10 -14 -5 3 -7 12 -3 20 7 21 13
19 13 -6z m-2993 -21 c-3 -7 -5 -2 -5 12 0 14 2 19 5 13 2 -7 2 -19 0 -25z
m20 0 c-3 -7 -5 -2 -5 12 0 14 2 19 5 13 2 -7 2 -19 0 -25z m110 0 c-3 -7 -5
-2 -5 12 0 14 2 19 5 13 2 -7 2 -19 0 -25z m40 0 c-3 -7 -5 -2 -5 12 0 14 2
19 5 13 2 -7 2 -19 0 -25z m55 0 c-9 -9 -12 -7 -12 12 0 19 3 21 12 12 9 -9 9
-15 0 -24z m75 0 c-3 -7 -5 -2 -5 12 0 14 2 19 5 13 2 -7 2 -19 0 -25z m-199
10 c-3 -7 -15 -12 -28 -12 -13 0 -25 5 -28 12 -2 8 7 12 28 12 21 0 30 -4 28
-12z m3302 2 c0 -5 -4 -10 -10 -10 -5 0 -10 5 -10 10 0 6 5 10 10 10 6 0 10
-4 10 -10z m90 0 c0 -5 -16 -10 -35 -10 -19 0 -35 5 -35 10 0 6 16 10 35 10
19 0 35 -4 35 -10z m40 0 c0 -5 -2 -10 -4 -10 -3 0 -8 5 -11 10 -3 6 -1 10 4
10 6 0 11 -4 11 -10z m237 -37 c-3 -10 -5 -2 -5 17 0 19 2 27 5 18 2 -10 2
-26 0 -35z m93 17 c0 -10 -4 -22 -10 -25 -6 -4 -10 7 -10 25 0 18 4 29 10 25
6 -3 10 -15 10 -25z m97 -17 c-4 -17 -4 -17 -12 0 -4 9 -4 25 0 35 8 16 8 16
12 0 3 -10 3 -26 0 -35z m55 27 c5 23 5 22 7 -6 1 -21 -4 -31 -14 -31 -10 0
-15 10 -14 31 1 30 1 30 8 6 l8 -25 5 25z m65 -27 c-3 -10 -5 -2 -5 17 0 19 2
27 5 18 2 -10 2 -26 0 -35z m403 17 c0 -5 -4 -10 -10 -10 -5 0 -10 5 -10 10 0
6 5 10 10 10 6 0 10 -4 10 -10z m-3883 -22 c-3 -8 -6 -5 -6 6 -1 11 2 17 5 13
3 -3 4 -12 1 -19z m43 7 c0 -8 -4 -15 -10 -15 -5 0 -10 7 -10 15 0 8 5 15 10
15 6 0 10 -7 10 -15z m97 0 c0 -8 -4 -15 -9 -15 -4 0 -8 7 -8 15 0 8 4 15 8
15 5 0 9 -7 9 -15z m960 -7 c-3 -8 -6 -5 -6 6 -1 11 2 17 5 13 3 -3 4 -12 1
-19z m30 0 c-3 -8 -6 -5 -6 6 -1 11 2 17 5 13 3 -3 4 -12 1 -19z m37 7 c3 -8
1 -15 -4 -15 -6 0 -10 7 -10 15 0 8 2 15 4 15 2 0 6 -7 10 -15z m36 0 c0 -8
-4 -15 -10 -15 -5 0 -10 7 -10 15 0 8 5 15 10 15 6 0 10 -7 10 -15z m40 0 c0
-8 -7 -15 -15 -15 -9 0 -12 6 -9 15 4 8 10 15 15 15 5 0 9 -7 9 -15z m150 0
c0 -11 -12 -15 -48 -15 -37 0 -49 4 -49 15 0 11 12 15 49 15 36 0 48 -4 48
-15z m37 -7 c-3 -8 -6 -5 -6 6 -1 11 2 17 5 13 3 -3 4 -12 1 -19z m50 0 c-3
-8 -6 -5 -6 6 -1 11 2 17 5 13 3 -3 4 -12 1 -19z m30 0 c-3 -8 -6 -5 -6 6 -1
11 2 17 5 13 3 -3 4 -12 1 -19z m53 7 c0 -8 -7 -15 -15 -15 -8 0 -15 7 -15 15
0 8 7 15 15 15 8 0 15 -7 15 -15z m60 0 c0 -8 -9 -15 -20 -15 -11 0 -20 7 -20
15 0 8 9 15 20 15 11 0 20 -7 20 -15z m1200 5 c0 -5 -4 -10 -10 -10 -5 0 -10
5 -10 10 0 6 5 10 10 10 6 0 10 -4 10 -10z m45 0 c3 -5 1 -10 -4 -10 -6 0 -11
5 -11 10 0 6 2 10 4 10 3 0 8 -4 11 -10z m45 0 c0 -5 -4 -10 -10 -10 -5 0 -10
5 -10 10 0 6 5 10 10 10 6 0 10 -4 10 -10z m90 -1 c0 -5 -9 -9 -20 -9 -11 0
-20 4 -20 8 0 4 9 8 20 9 11 1 20 -2 20 -8z m-3583 -21 c-3 -8 -6 -5 -6 6 -1
11 2 17 5 13 3 -3 4 -12 1 -19z m43 7 c0 -8 -4 -15 -10 -15 -5 0 -10 7 -10 15
0 8 5 15 10 15 6 0 10 -7 10 -15z m40 -6 c0 -5 -4 -9 -10 -9 -5 0 -10 7 -10
16 0 8 5 12 10 9 6 -3 10 -10 10 -16z m27 -1 c-3 -8 -6 -5 -6 6 -1 11 2 17 5
13 3 -3 4 -12 1 -19z m63 5 c0 -7 -9 -13 -20 -13 -12 0 -17 5 -14 13 3 8 11
14 19 14 8 0 15 -6 15 -14z m110 2 c0 -9 -9 -15 -25 -15 -16 0 -25 6 -25 15 0
9 9 15 25 15 16 0 25 -6 25 -15z m647 -17 c-3 -7 -5 -2 -5 12 0 14 2 19 5 13
2 -7 2 -19 0 -25z m33 12 c0 -11 -4 -20 -10 -20 -5 0 -10 9 -10 20 0 11 5 20
10 20 6 0 10 -9 10 -20z m80 0 c0 -11 -4 -20 -10 -20 -5 0 -10 9 -10 20 0 11
5 20 10 20 6 0 10 -9 10 -20z m40 0 c0 -11 -7 -20 -15 -20 -8 0 -15 9 -15 20
0 11 7 20 15 20 8 0 15 -9 15 -20z m40 0 c0 -11 -7 -20 -15 -20 -8 0 -15 9
-15 20 0 11 7 20 15 20 8 0 15 -9 15 -20z m17 -12 c-3 -7 -5 -2 -5 12 0 14 2
19 5 13 2 -7 2 -19 0 -25z m1740 0 c-3 -7 -5 -2 -5 12 0 14 2 19 5 13 2 -7 2
-19 0 -25z m73 12 c0 -11 -7 -20 -15 -20 -8 0 -15 9 -15 20 0 11 7 20 15 20 8
0 15 -9 15 -20z m40 0 c0 -11 -4 -20 -10 -20 -5 0 -10 9 -10 20 0 11 5 20 10
20 6 0 10 -9 10 -20z m80 0 c0 -11 -7 -20 -15 -20 -8 0 -15 9 -15 20 0 11 7
20 15 20 8 0 15 -9 15 -20z m67 -12 c-3 -7 -5 -2 -5 12 0 14 2 19 5 13 2 -7 2
-19 0 -25z m308 3 c3 -5 1 -12 -5 -16 -5 -3 -10 1 -10 9 0 18 6 21 15 7z m65
-5 c0 -12 -13 -14 -40 -6 -4 1 24 16 38 19 1 1 2 -5 2 -13z m950 4 c0 -5 -4
-10 -10 -10 -5 0 -10 5 -10 10 0 6 5 10 10 10 6 0 10 -4 10 -10z m75 0 c3 -5
1 -10 -4 -10 -6 0 -11 5 -11 10 0 6 2 10 4 10 3 0 8 -4 11 -10z m-1159 -7
c-10 -11 -36 -12 -36 -2 0 5 10 9 22 9 12 0 18 -3 14 -7z m-2779 -35 c-3 -7
-5 -2 -5 12 0 14 2 19 5 13 2 -7 2 -19 0 -25z m30 0 c-3 -7 -5 -2 -5 12 0 14
2 19 5 13 2 -7 2 -19 0 -25z m43 12 c0 -11 -4 -20 -10 -20 -5 0 -10 9 -10 20
0 11 5 20 10 20 6 0 10 -9 10 -20z m47 5 c7 -20 -2 -29 -21 -22 -9 4 -13 13
-10 22 8 19 23 19 31 0z m960 -7 c-3 -8 -6 -5 -6 6 -1 11 2 17 5 13 3 -3 4
-12 1 -19z m30 0 c-3 -8 -6 -5 -6 6 -1 11 2 17 5 13 3 -3 4 -12 1 -19z m103 7
c0 -8 -4 -15 -10 -15 -5 0 -10 7 -10 15 0 8 5 15 10 15 6 0 10 -7 10 -15z m44
0 c3 -9 0 -15 -9 -15 -8 0 -15 7 -15 15 0 8 4 15 9 15 5 0 11 -7 15 -15z m46
0 c0 -8 -6 -15 -13 -15 -8 0 -14 7 -14 15 0 8 6 15 14 15 7 0 13 -7 13 -15z
m27 -7 c-3 -8 -6 -5 -6 6 -1 11 2 17 5 13 3 -3 4 -12 1 -19z m53 7 c0 -8 -7
-15 -15 -15 -8 0 -15 7 -15 15 0 8 7 15 15 15 8 0 15 -7 15 -15z m27 -7 c-3
-8 -6 -5 -6 6 -1 11 2 17 5 13 3 -3 4 -12 1 -19z m53 7 c0 -8 -7 -15 -15 -15
-8 0 -15 7 -15 15 0 8 7 15 15 15 8 0 15 -7 15 -15z m60 0 c0 -8 -4 -15 -10
-15 -5 0 -10 7 -10 15 0 8 5 15 10 15 6 0 10 -7 10 -15z m47 -7 c-3 -8 -6 -5
-6 6 -1 11 2 17 5 13 3 -3 4 -12 1 -19z m133 10 c0 -4 -9 -8 -20 -8 -11 0 -20
4 -20 8 0 4 9 8 20 8 11 0 20 -4 20 -8z m80 2 c0 -5 -5 -10 -11 -10 -5 0 -7 5
-4 10 3 6 8 10 11 10 2 0 4 -4 4 -10z m1413 -10 c3 -11 1 -23 -4 -26 -5 -3 -9
6 -9 20 0 31 6 34 13 6z m67 -5 c0 -18 -5 -25 -20 -25 -15 0 -20 7 -20 25 0
18 5 25 20 25 15 0 20 -7 20 -25z m60 0 c0 -18 -5 -25 -20 -25 -15 0 -20 7
-20 25 0 18 5 25 20 25 15 0 20 -7 20 -25z m40 0 c0 -14 -4 -25 -10 -25 -5 0
-10 11 -10 25 0 14 5 25 10 25 6 0 10 -11 10 -25z m57 -12 c-3 -10 -5 -4 -5
12 0 17 2 24 5 18 2 -7 2 -21 0 -30z m-4020 5 c-3 -8 -6 -5 -6 6 -1 11 2 17 5
13 3 -3 4 -12 1 -19z m43 7 c0 -8 -4 -15 -10 -15 -5 0 -10 7 -10 15 0 8 5 15
10 15 6 0 10 -7 10 -15z m110 0 c0 -8 -2 -15 -4 -15 -2 0 -6 7 -10 15 -3 8 -1
15 4 15 6 0 10 -7 10 -15z m60 0 c0 -8 -9 -15 -20 -15 -11 0 -20 7 -20 15 0 8
9 15 20 15 11 0 20 -7 20 -15z m50 0 c0 -8 -7 -15 -15 -15 -8 0 -15 7 -15 15
0 8 7 15 15 15 8 0 15 -7 15 -15z m40 0 c0 -8 -4 -15 -10 -15 -5 0 -10 7 -10
15 0 8 5 15 10 15 6 0 10 -7 10 -15z m637 -27 c-3 -7 -5 -2 -5 12 0 14 2 19 5
13 2 -7 2 -19 0 -25z m30 0 c-3 -7 -5 -2 -5 12 0 14 2 19 5 13 2 -7 2 -19 0
-25z m33 12 c0 -11 -4 -20 -10 -20 -5 0 -10 9 -10 20 0 11 5 20 10 20 6 0 10
-9 10 -20z m40 0 c0 -11 -7 -20 -15 -20 -8 0 -15 9 -15 20 0 11 7 20 15 20 8
0 15 -9 15 -20z m40 0 c0 -11 -7 -20 -15 -20 -8 0 -15 9 -15 20 0 11 7 20 15
20 8 0 15 -9 15 -20z m50 0 c0 -13 -7 -20 -20 -20 -13 0 -20 7 -20 20 0 13 7
20 20 20 13 0 20 -7 20 -20z m1817 -17 c-3 -10 -5 -4 -5 12 0 17 2 24 5 18 2
-7 2 -21 0 -30z m93 17 c0 -11 -4 -20 -10 -20 -5 0 -10 9 -10 20 0 11 5 20 10
20 6 0 10 -9 10 -20z m27 -17 c-3 -10 -5 -4 -5 12 0 17 2 24 5 18 2 -7 2 -21
0 -30z m43 17 c0 -11 -4 -20 -10 -20 -5 0 -10 9 -10 20 0 11 5 20 10 20 6 0
10 -9 10 -20z m27 -17 c-3 -10 -5 -4 -5 12 0 17 2 24 5 18 2 -7 2 -21 0 -30z
m283 27 c0 -5 -13 -10 -30 -10 -16 0 -30 5 -30 10 0 6 14 10 30 10 17 0 30 -4
30 -10z m180 0 c0 -13 -98 -11 -106 2 -3 4 20 8 50 8 33 0 56 -4 56 -10z m910
0 c0 -5 -4 -10 -10 -10 -5 0 -10 5 -10 10 0 6 5 10 10 10 6 0 10 -4 10 -10z
m-2210 -20 c0 -5 -2 -10 -4 -10 -3 0 -8 5 -11 10 -3 6 -1 10 4 10 6 0 11 -4
11 -10z m40 0 c0 -5 -2 -10 -4 -10 -3 0 -8 5 -11 10 -3 6 -1 10 4 10 6 0 11
-4 11 -10z m40 0 c0 -5 -2 -10 -4 -10 -3 0 -8 5 -11 10 -3 6 -1 10 4 10 6 0
11 -4 11 -10z m-2363 -32 c-3 -7 -5 -2 -5 12 0 14 2 19 5 13 2 -7 2 -19 0 -25z
m43 18 c0 -8 -4 -18 -10 -21 -5 -3 -10 3 -10 14 0 12 5 21 10 21 6 0 10 -6 10
-14z m33 -1 c4 -8 2 -17 -3 -20 -6 -4 -10 3 -10 14 0 25 6 27 13 6z m57 -3 c0
-10 -7 -19 -15 -19 -8 0 -15 9 -15 19 0 10 7 18 15 18 8 0 15 -8 15 -18z m60
4 c0 -15 -24 -28 -34 -19 -13 14 -5 33 14 33 11 0 20 -6 20 -14z m70 -6 c0
-10 -9 -16 -25 -16 -17 0 -25 5 -25 18 0 13 7 17 25 16 15 -2 25 -9 25 -18z
m1420 5 c0 -8 -4 -15 -10 -15 -5 0 -10 7 -10 15 0 8 5 15 10 15 6 0 10 -7 10
-15z m30 0 c0 -8 -2 -15 -4 -15 -2 0 -6 7 -10 15 -3 8 -1 15 4 15 6 0 10 -7
10 -15z m27 -7 c-3 -8 -6 -5 -6 6 -1 11 2 17 5 13 3 -3 4 -12 1 -19z m53 7 c0
-8 -7 -15 -15 -15 -8 0 -15 7 -15 15 0 8 7 15 15 15 8 0 15 -7 15 -15z m80 0
c0 -8 -4 -15 -10 -15 -5 0 -10 7 -10 15 0 8 5 15 10 15 6 0 10 -7 10 -15z m30
0 c0 -8 -4 -15 -10 -15 -5 0 -10 7 -10 15 0 8 5 15 10 15 6 0 10 -7 10 -15z
m50 0 c0 -8 -4 -15 -10 -15 -5 0 -10 7 -10 15 0 8 5 15 10 15 6 0 10 -7 10
-15z m80 0 c0 -8 -4 -15 -10 -15 -5 0 -10 7 -10 15 0 8 5 15 10 15 6 0 10 -7
10 -15z m60 0 c0 -8 -4 -15 -8 -15 -5 0 -9 7 -9 15 0 8 4 15 9 15 4 0 8 -7 8
-15z m27 -7 c-3 -8 -6 -5 -6 6 -1 11 2 17 5 13 3 -3 4 -12 1 -19z m30 0 c-3
-8 -6 -5 -6 6 -1 11 2 17 5 13 3 -3 4 -12 1 -19z m1278 12 c4 -6 -5 -10 -20
-10 -15 0 -24 4 -20 10 3 6 12 10 20 10 8 0 17 -4 20 -10z m45 0 c0 -5 -4 -10
-10 -10 -5 0 -10 5 -10 10 0 6 5 10 10 10 6 0 10 -4 10 -10z m70 0 c0 -5 -4
-10 -10 -10 -5 0 -10 5 -10 10 0 6 5 10 10 10 6 0 10 -4 10 -10z m60 -2 c0 -4
-9 -8 -21 -8 -11 0 -18 4 -15 8 3 5 12 9 21 9 8 0 15 -4 15 -9z m-3023 -30
c-3 -7 -5 -2 -5 12 0 14 2 19 5 13 2 -7 2 -19 0 -25z m50 0 c-3 -7 -5 -2 -5
12 0 14 2 19 5 13 2 -7 2 -19 0 -25z m53 14 c0 -10 -7 -19 -15 -19 -8 0 -15 9
-15 19 0 10 7 18 15 18 8 0 15 -8 15 -18z m27 -14 c-3 -7 -5 -2 -5 12 0 14 2
19 5 13 2 -7 2 -19 0 -25z m3733 22 c0 -5 -4 -10 -10 -10 -5 0 -10 5 -10 10 0
6 5 10 10 10 6 0 10 -4 10 -10z m80 0 c0 -5 -4 -10 -10 -10 -5 0 -10 5 -10 10
0 6 5 10 10 10 6 0 10 -4 10 -10z m-2220 -10 c0 -5 -4 -10 -10 -10 -5 0 -10 5
-10 10 0 6 5 10 10 10 6 0 10 -4 10 -10z m1430 -20 c0 -17 -5 -27 -15 -27 -10
0 -15 10 -15 27 0 17 5 27 15 27 10 0 15 -10 15 -27z m30 0 c0 -10 -4 -22 -10
-25 -6 -4 -10 7 -10 25 0 18 4 29 10 25 6 -3 10 -15 10 -25z m60 1 c0 -24 -4
-29 -20 -28 -15 1 -20 8 -20 29 0 21 5 28 20 28 15 0 20 -7 20 -29z m60 -1 c0
-23 -4 -30 -20 -30 -16 0 -20 7 -20 30 0 23 4 30 20 30 16 0 20 -7 20 -30z
m40 -1 c0 -17 -4 -28 -10 -24 -5 3 -10 17 -10 31 0 13 5 24 10 24 6 0 10 -14
10 -31z m40 -1 c0 -17 -3 -28 -7 -24 -9 9 -13 38 -7 48 10 15 14 8 14 -24z
m37 -15 c-3 -10 -5 -2 -5 17 0 19 2 27 5 18 2 -10 2 -26 0 -35z m-3080 5 c-3
-7 -5 -2 -5 12 0 14 2 19 5 13 2 -7 2 -19 0 -25z m40 0 c-3 -7 -5 -2 -5 12 0
14 2 19 5 13 2 -7 2 -19 0 -25z m43 12 c0 -11 -4 -20 -10 -20 -5 0 -10 9 -10
20 0 11 5 20 10 20 6 0 10 -9 10 -20z m40 0 c0 -11 -4 -20 -10 -20 -5 0 -10 9
-10 20 0 11 5 20 10 20 6 0 10 -9 10 -20z m27 -12 c-3 -7 -5 -2 -5 12 0 14 2
19 5 13 2 -7 2 -19 0 -25z m1953 7 c0 -14 -4 -25 -10 -25 -5 0 -10 11 -10 25
0 14 5 25 10 25 6 0 10 -11 10 -25z m50 -2 c-1 -24 -2 -26 -11 -10 -5 9 -7 22
-4 27 10 17 15 11 15 -17z m285 18 c3 -5 1 -12 -5 -16 -5 -3 -10 1 -10 9 0 18
6 21 15 7z m153 -6 c1 -5 -16 -10 -38 -10 -24 -1 -40 4 -40 11 0 14 74 13 78
-1z m95 -1 c-3 -9 -23 -13 -36 -6 -4 2 -5 7 -2 12 7 11 41 6 38 -6z m-1833
-14 c0 -11 -7 -20 -15 -20 -27 0 -18 30 13 39 1 1 2 -8 2 -19z m-1770 -5 c0
-8 -4 -15 -10 -15 -5 0 -7 7 -4 15 4 8 8 15 10 15 2 0 4 -7 4 -15z m60 0 c0
-8 -4 -15 -10 -15 -5 0 -10 7 -10 15 0 8 5 15 10 15 6 0 10 -7 10 -15z m50 0
c0 -8 -7 -15 -15 -15 -8 0 -15 7 -15 15 0 8 7 15 15 15 8 0 15 -7 15 -15z m60
0 c0 -8 -9 -15 -20 -15 -11 0 -20 7 -20 15 0 8 9 15 20 15 11 0 20 -7 20 -15z
m40 0 c0 -8 -4 -15 -10 -15 -5 0 -10 7 -10 15 0 8 5 15 10 15 6 0 10 -7 10
-15z m1470 0 c0 -8 -4 -15 -10 -15 -5 0 -10 7 -10 15 0 8 5 15 10 15 6 0 10
-7 10 -15z m50 0 c0 -8 -4 -15 -10 -15 -5 0 -10 7 -10 15 0 8 5 15 10 15 6 0
10 -7 10 -15z m90 0 c0 -8 -7 -15 -15 -15 -8 0 -15 7 -15 15 0 8 7 15 15 15 8
0 15 -7 15 -15z m27 -7 c-3 -8 -6 -5 -6 6 -1 11 2 17 5 13 3 -3 4 -12 1 -19z
m103 7 c0 -8 -4 -15 -10 -15 -5 0 -10 7 -10 15 0 8 5 15 10 15 6 0 10 -7 10
-15z m57 -7 c-3 -8 -6 -5 -6 6 -1 11 2 17 5 13 3 -3 4 -12 1 -19z m83 7 c0 -8
-4 -15 -10 -15 -5 0 -10 7 -10 15 0 8 5 15 10 15 6 0 10 -7 10 -15z m50 0 c0
-8 -7 -15 -15 -15 -8 0 -15 7 -15 15 0 8 7 15 15 15 8 0 15 -7 15 -15z m37 -7
c-3 -8 -6 -5 -6 6 -1 11 2 17 5 13 3 -3 4 -12 1 -19z m83 12 c0 -5 -4 -10 -10
-10 -5 0 -10 5 -10 10 0 6 5 10 10 10 6 0 10 -4 10 -10z m100 0 c0 -5 -9 -10
-20 -10 -11 0 -20 5 -20 10 0 6 9 10 20 10 11 0 20 -4 20 -10z m2080 0 c0 -5
-4 -10 -10 -10 -5 0 -10 5 -10 10 0 6 5 10 10 10 6 0 10 -4 10 -10z m80 0 c0
-5 -4 -10 -10 -10 -5 0 -10 5 -10 10 0 6 5 10 10 10 6 0 10 -4 10 -10z m-3970
-26 c0 -8 -4 -14 -10 -14 -5 0 -10 9 -10 21 0 11 5 17 10 14 6 -3 10 -13 10
-21z m60 6 c0 -11 -7 -20 -15 -20 -8 0 -15 9 -15 20 0 11 7 20 15 20 8 0 15
-9 15 -20z m40 -6 c0 -8 -4 -14 -10 -14 -5 0 -10 9 -10 21 0 11 5 17 10 14 6
-3 10 -13 10 -21z m2780 6 c0 -5 -25 -10 -55 -10 -30 0 -55 5 -55 10 0 6 25
10 55 10 30 0 55 -4 55 -10z m86 3 c-11 -11 -46 -14 -46 -3 0 6 12 10 27 10
14 0 23 -3 19 -7z m44 -3 c0 -5 -4 -10 -10 -10 -5 0 -10 5 -10 10 0 6 5 10 10
10 6 0 10 -4 10 -10z m-1260 -10 c0 -5 -9 -10 -20 -10 -11 0 -20 5 -20 10 0 6
9 10 20 10 11 0 20 -4 20 -10z m60 0 c0 -5 -9 -10 -20 -10 -11 0 -20 5 -20 10
0 6 9 10 20 10 11 0 20 -4 20 -10z m-2403 -32 c-3 -7 -5 -2 -5 12 0 14 2 19 5
13 2 -7 2 -19 0 -25z m67 26 c23 -9 20 -34 -4 -34 -13 0 -20 7 -20 20 0 22 1
23 24 14z m48 -26 c-9 -9 -12 -7 -12 12 0 19 3 21 12 12 9 -9 9 -15 0 -24z
m165 0 c-3 -7 -5 -2 -5 12 0 14 2 19 5 13 2 -7 2 -19 0 -25z m743 12 c0 -11
-4 -20 -10 -20 -5 0 -10 9 -10 20 0 11 5 20 10 20 6 0 10 -9 10 -20z m57 -12
c-3 -7 -5 -2 -5 12 0 14 2 19 5 13 2 -7 2 -19 0 -25z m673 12 c0 -11 -7 -20
-15 -20 -8 0 -15 9 -15 20 0 11 7 20 15 20 8 0 15 -9 15 -20z m27 -12 c-3 -7
-5 -2 -5 12 0 14 2 19 5 13 2 -7 2 -19 0 -25z m140 0 c-3 -7 -5 -2 -5 12 0 14
2 19 5 13 2 -7 2 -19 0 -25z m99 -5 c-11 -11 -19 6 -11 24 8 17 8 17 12 0 3
-10 2 -21 -1 -24z m94 17 c0 -11 -7 -20 -15 -20 -15 0 -21 21 -8 33 12 13 23
7 23 -13z m36 -5 c1 -8 -2 -15 -7 -15 -5 0 -9 10 -9 22 0 23 12 17 16 -7z m41
-7 c-3 -7 -5 -2 -5 12 0 14 2 19 5 13 2 -7 2 -19 0 -25z m2293 22 c0 -5 -4
-10 -10 -10 -5 0 -10 5 -10 10 0 6 5 10 10 10 6 0 10 -4 10 -10z m50 0 c0 -5
-4 -10 -10 -10 -5 0 -10 5 -10 10 0 6 5 10 10 10 6 0 10 -4 10 -10z m30 0 c0
-5 -4 -10 -10 -10 -5 0 -10 5 -10 10 0 6 5 10 10 10 6 0 10 -4 10 -10z m-4350
-15 c0 -8 -4 -15 -10 -15 -5 0 -10 7 -10 15 0 8 5 15 10 15 6 0 10 -7 10 -15z
m1480 0 c0 -8 -4 -15 -10 -15 -5 0 -10 7 -10 15 0 8 5 15 10 15 6 0 10 -7 10
-15z m1710 5 c0 -5 -4 -10 -10 -10 -5 0 -10 5 -10 10 0 6 5 10 10 10 6 0 10
-4 10 -10z m70 0 c0 -5 -4 -10 -10 -10 -5 0 -10 5 -10 10 0 6 5 10 10 10 6 0
10 -4 10 -10z m40 0 c0 -5 -4 -10 -10 -10 -5 0 -10 5 -10 10 0 6 5 10 10 10 6
0 10 -4 10 -10z m110 0 c0 -5 -4 -10 -10 -10 -5 0 -10 5 -10 10 0 6 5 10 10
10 6 0 10 -4 10 -10z m107 -27 c-3 -10 -5 -4 -5 12 0 17 2 24 5 18 2 -7 2 -21
0 -30z m73 12 c0 -14 -4 -25 -10 -25 -5 0 -10 6 -10 13 0 8 -4 7 -10 -3 -8
-12 -10 -9 -10 13 0 20 5 27 20 27 15 0 20 -7 20 -25z m60 0 c0 -18 -5 -25
-20 -25 -15 0 -20 7 -20 25 0 18 5 25 20 25 15 0 20 -7 20 -25z m40 0 c0 -14
-4 -25 -10 -25 -5 0 -10 11 -10 25 0 14 5 25 10 25 6 0 10 -11 10 -25z m120 0
c0 -14 -4 -25 -10 -25 -5 0 -9 11 -8 25 1 14 6 25 10 25 4 0 8 -11 8 -25z m37
-12 c-3 -10 -5 -4 -5 12 0 17 2 24 5 18 2 -7 2 -21 0 -30z m-1717 13 c0 -10
-7 -12 -22 -8 -21 5 -21 6 -2 13 10 4 20 8 22 8 1 1 2 -5 2 -13z m80 -2 c0 -6
-12 -10 -27 -8 -35 3 -35 3 -30 12 8 11 57 8 57 -4z m-1185 -3 c3 -5 1 -12 -5
-16 -5 -3 -10 1 -10 9 0 18 6 21 15 7z m30 0 c3 -5 1 -12 -5 -16 -5 -3 -10 1
-10 9 0 18 6 21 15 7z m109 -12 c-3 -5 -10 -7 -15 -3 -5 3 -7 10 -3 15 3 5 10
7 15 3 5 -3 7 -10 3 -15z m3106 0 c0 -5 -4 -9 -10 -9 -5 0 -10 7 -10 16 0 8 5
12 10 9 6 -3 10 -10 10 -16z m-1130 1 c0 -5 -5 -10 -11 -10 -5 0 -7 5 -4 10 3
6 8 10 11 10 2 0 4 -4 4 -10z m50 1 c0 -6 -4 -13 -10 -16 -5 -3 -10 1 -10 9 0
9 5 16 10 16 6 0 10 -4 10 -9z m40 -7 c0 -8 -4 -12 -10 -9 -5 3 -10 10 -10 16
0 5 5 9 10 9 6 0 10 -7 10 -16z m140 6 c0 -5 -16 -10 -36 -10 -21 0 -33 4 -29
10 3 6 19 10 36 10 16 0 29 -4 29 -10z m-3540 -22 c0 -16 -3 -19 -11 -11 -6 6
-8 16 -5 22 11 17 16 13 16 -11z m40 2 c0 -11 -4 -20 -10 -20 -5 0 -10 9 -10
20 0 11 5 20 10 20 6 0 10 -9 10 -20z m70 2 c0 -13 -8 -18 -25 -18 -17 0 -25
5 -25 18 0 13 8 18 25 18 17 0 25 -5 25 -18z m40 3 c0 -8 -4 -15 -10 -15 -5 0
-10 7 -10 15 0 8 5 15 10 15 6 0 10 -7 10 -15z m60 2 c0 -19 -10 -27 -26 -20
-21 8 -17 33 6 33 11 0 20 -6 20 -13z m27 -19 c-3 -7 -5 -2 -5 12 0 14 2 19 5
13 2 -7 2 -19 0 -25z m1439 -5 c-11 -11 -19 6 -11 24 8 17 8 17 12 0 3 -10 2
-21 -1 -24z m30 0 c-11 -11 -19 6 -11 24 8 17 8 17 12 0 3 -10 2 -21 -1 -24z
m31 5 c-3 -7 -5 -2 -5 12 0 14 2 19 5 13 2 -7 2 -19 0 -25z m30 0 c-3 -7 -5
-2 -5 12 0 14 2 19 5 13 2 -7 2 -19 0 -25z m43 6 c0 -8 -4 -14 -10 -14 -5 0
-10 9 -10 21 0 11 5 17 10 14 6 -3 10 -13 10 -21z m40 6 c0 -11 -7 -20 -15
-20 -8 0 -15 9 -15 20 0 11 7 20 15 20 8 0 15 -9 15 -20z m27 -12 c-3 -7 -5
-2 -5 12 0 14 2 19 5 13 2 -7 2 -19 0 -25z m83 12 c0 -13 -7 -20 -20 -20 -13
0 -20 7 -20 20 0 13 7 20 20 20 13 0 20 -7 20 -20z m100 0 c0 -11 -7 -20 -15
-20 -8 0 -15 9 -15 20 0 11 7 20 15 20 8 0 15 -9 15 -20z m30 -2 c0 -16 -3
-19 -11 -11 -6 6 -8 16 -5 22 11 17 16 13 16 -11z m27 -10 c-3 -7 -5 -2 -5 12
0 14 2 19 5 13 2 -7 2 -19 0 -25z m30 0 c-3 -7 -5 -2 -5 12 0 14 2 19 5 13 2
-7 2 -19 0 -25z m133 11 c0 -5 -9 -9 -20 -9 -11 0 -20 6 -20 14 0 9 7 12 20 9
11 -3 20 -9 20 -14z m36 -6 c-10 -10 -19 5 -10 18 6 11 8 11 12 0 2 -7 1 -15
-2 -18z m-1336 -3 c0 -11 -4 -20 -10 -20 -5 0 -10 9 -10 20 0 11 5 20 10 20 6
0 10 -9 10 -20z m17 -17 c-3 -10 -5 -4 -5 12 0 17 2 24 5 18 2 -7 2 -21 0 -30z
m30 0 c-3 -10 -5 -4 -5 12 0 17 2 24 5 18 2 -7 2 -21 0 -30z m-1242 18 c3 -5
1 -12 -5 -16 -5 -3 -10 1 -10 9 0 18 6 21 15 7z m1415 -1 c0 -5 -4 -10 -10
-10 -5 0 -10 5 -10 10 0 6 5 10 10 10 6 0 10 -4 10 -10z m30 6 c0 -3 -4 -8
-10 -11 -5 -3 -10 -1 -10 4 0 6 5 11 10 11 6 0 10 -2 10 -4z m50 -6 c0 -5 -4
-10 -10 -10 -5 0 -10 5 -10 10 0 6 5 10 10 10 6 0 10 -4 10 -10z m60 6 c0 -11
-19 -15 -25 -6 -3 5 1 10 9 10 9 0 16 -2 16 -4z m2000 -5 c2 -1 -1 -6 -7 -12
-13 -13 -47 -4 -39 10 4 5 14 8 24 6 9 -2 19 -4 22 -4z m108 -9 c2 -8 -11 -12
-42 -12 -30 0 -46 4 -46 13 0 16 82 16 88 -1z m80 9 c29 -2 9 -21 -23 -21 -19
0 -35 4 -35 8 0 14 10 20 28 17 9 -2 23 -4 30 -4z m75 -7 c-3 -12 -43 -18 -43
-6 0 5 3 11 6 14 8 9 39 2 37 -8z m883 -11 c-10 -10 -19 5 -10 18 6 11 8 11
12 0 2 -7 1 -15 -2 -18z m-626 -13 c0 -23 -4 -30 -20 -30 -16 0 -20 7 -20 30
0 23 4 30 20 30 16 0 20 -7 20 -30z m40 0 c0 -16 -4 -30 -10 -30 -5 0 -10 14
-10 30 0 17 5 30 10 30 6 0 10 -13 10 -30z m40 -1 c0 -17 -4 -28 -10 -24 -5 3
-10 17 -10 31 0 13 5 24 10 24 6 0 10 -14 10 -31z m40 0 c0 -17 -4 -28 -10
-24 -5 3 -10 17 -10 31 0 13 5 24 10 24 6 0 10 -14 10 -31z m37 -16 c-3 -10
-5 -2 -5 17 0 19 2 27 5 18 2 -10 2 -26 0 -35z m-1737 27 c0 -5 -4 -10 -10
-10 -5 0 -10 5 -10 10 0 6 5 10 10 10 6 0 10 -4 10 -10z m80 0 c0 -5 -4 -10
-10 -10 -5 0 -10 5 -10 10 0 6 5 10 10 10 6 0 10 -4 10 -10z m-2360 -15 c0 -8
-4 -15 -10 -15 -5 0 -10 7 -10 15 0 8 5 15 10 15 6 0 10 -7 10 -15z m80 0 c0
-8 -9 -15 -20 -15 -11 0 -20 7 -20 15 0 8 9 15 20 15 11 0 20 -7 20 -15z m70
0 c0 -8 -9 -15 -20 -15 -11 0 -20 7 -20 15 0 8 9 15 20 15 11 0 20 -7 20 -15z
m40 0 c0 -8 -4 -15 -10 -15 -5 0 -10 7 -10 15 0 8 5 15 10 15 6 0 10 -7 10
-15z m50 0 c0 -8 -7 -15 -15 -15 -8 0 -15 7 -15 15 0 8 7 15 15 15 8 0 15 -7
15 -15z m40 0 c0 -8 -4 -15 -10 -15 -5 0 -10 7 -10 15 0 8 5 15 10 15 6 0 10
-7 10 -15z m970 5 c0 -5 -4 -10 -10 -10 -5 0 -10 5 -10 10 0 6 5 10 10 10 6 0
10 -4 10 -10z m110 0 c0 -5 -4 -10 -10 -10 -5 0 -10 5 -10 10 0 6 5 10 10 10
6 0 10 -4 10 -10z m377 -22 c-3 -7 -5 -2 -5 12 0 14 2 19 5 13 2 -7 2 -19 0
-25z m71 9 c2 -12 -3 -17 -17 -17 -15 0 -21 6 -21 21 0 25 33 22 38 -4z m32 3
c0 -11 -4 -20 -10 -20 -5 0 -10 9 -10 20 0 11 5 20 10 20 6 0 10 -9 10 -20z
m44 5 c3 -9 -1 -18 -10 -22 -19 -7 -28 2 -21 22 8 19 23 19 31 0z m28 -17 c-9
-9 -12 -7 -12 12 0 19 3 21 12 12 9 -9 9 -15 0 -24z m80 0 c-9 -9 -12 -7 -12
12 0 19 3 21 12 12 9 -9 9 -15 0 -24z m45 0 c-3 -7 -5 -2 -5 12 0 14 2 19 5
13 2 -7 2 -19 0 -25z m103 12 c0 -11 -4 -20 -10 -20 -5 0 -10 9 -10 20 0 11 5
20 10 20 6 0 10 -9 10 -20z m30 0 c0 -11 -4 -20 -10 -20 -5 0 -10 9 -10 20 0
11 5 20 10 20 6 0 10 -9 10 -20z m-2380 6 c0 -3 -4 -8 -10 -11 -5 -3 -10 -1
-10 4 0 6 5 11 10 11 6 0 10 -2 10 -4z m3550 -6 c0 -5 -4 -10 -10 -10 -5 0
-10 5 -10 10 0 6 5 10 10 10 6 0 10 -4 10 -10z m40 0 c0 -5 -4 -10 -10 -10 -5
0 -10 5 -10 10 0 6 5 10 10 10 6 0 10 -4 10 -10z m110 0 c0 -5 -4 -10 -10 -10
-5 0 -10 5 -10 10 0 6 5 10 10 10 6 0 10 -4 10 -10z m70 0 c0 -5 -9 -10 -20
-10 -11 0 -20 5 -20 10 0 6 9 10 20 10 11 0 20 -4 20 -10z m907 -7 c2 -6 -8
-10 -22 -10 -14 0 -25 5 -25 13 0 16 42 13 47 -3z m-3487 -18 c0 -14 -4 -25
-10 -25 -5 0 -10 11 -10 25 0 14 5 25 10 25 6 0 10 -11 10 -25z m1340 15 c0
-5 -9 -10 -20 -10 -11 0 -20 5 -20 10 0 6 9 10 20 10 11 0 20 -4 20 -10z m40
0 c0 -5 -4 -10 -10 -10 -5 0 -10 5 -10 10 0 6 5 10 10 10 6 0 10 -4 10 -10z
m-2570 -22 c0 -6 -7 -7 -16 -4 -12 4 -15 2 -11 -9 4 -8 2 -17 -3 -20 -6 -4
-10 7 -10 23 0 25 3 29 20 25 11 -3 20 -10 20 -15z m1410 13 c0 -6 -4 -13 -10
-16 -5 -3 -10 1 -10 9 0 9 5 16 10 16 6 0 10 -4 10 -9z m160 -1 c0 -6 -16 -10
-35 -10 -19 0 -35 4 -35 8 0 5 16 9 35 10 19 1 35 -3 35 -8z m-1360 -20 c0
-15 -7 -20 -25 -20 -18 0 -25 5 -25 20 0 15 7 20 25 20 18 0 25 -5 25 -20z
m58 3 c-5 -26 -38 -29 -38 -4 0 15 6 21 21 21 14 0 19 -5 17 -17z m34 -15 c-9
-9 -12 -7 -12 12 0 19 3 21 12 12 9 -9 9 -15 0 -24z m38 10 c0 -16 -3 -19 -11
-11 -6 6 -8 16 -5 22 11 17 16 13 16 -11z m60 2 c0 -11 -4 -20 -10 -20 -5 0
-10 9 -10 20 0 11 5 20 10 20 6 0 10 -9 10 -20z m90 0 c0 -15 -7 -20 -24 -20
-14 0 -28 5 -31 10 -10 16 4 30 31 30 17 0 24 -5 24 -20z m3060 10 c0 -5 -7
-10 -16 -10 -8 0 -12 5 -9 10 3 6 10 10 16 10 5 0 9 -4 9 -10z m65 0 c4 -6 -5
-10 -19 -10 -14 0 -26 5 -26 10 0 6 9 10 19 10 11 0 23 -4 26 -10z m115 2 c0
-13 -12 -22 -22 -16 -10 6 -1 24 13 24 5 0 9 -4 9 -8z m-1810 -22 c0 -11 -4
-20 -10 -20 -5 0 -10 9 -10 20 0 11 5 20 10 20 6 0 10 -9 10 -20z m50 0 c0
-11 -4 -20 -10 -20 -5 0 -10 9 -10 20 0 11 5 20 10 20 6 0 10 -9 10 -20z m30
0 c0 -11 -4 -20 -10 -20 -5 0 -10 9 -10 20 0 11 5 20 10 20 6 0 10 -9 10 -20z
m50 0 c0 -11 -4 -20 -10 -20 -5 0 -10 9 -10 20 0 11 5 20 10 20 6 0 10 -9 10
-20z m90 0 c0 -11 -7 -20 -15 -20 -8 0 -15 9 -15 20 0 11 7 20 15 20 8 0 15
-9 15 -20z m27 -12 c-3 -7 -5 -2 -5 12 0 14 2 19 5 13 2 -7 2 -19 0 -25z m83
12 c0 -11 -7 -20 -15 -20 -8 0 -15 9 -15 20 0 11 7 20 15 20 8 0 15 -9 15 -20z
m27 -12 c-3 -7 -5 -2 -5 12 0 14 2 19 5 13 2 -7 2 -19 0 -25z m43 18 c0 -8 -4
-18 -10 -21 -5 -3 -10 3 -10 14 0 12 5 21 10 21 6 0 10 -6 10 -14z m30 -6 c0
-11 -4 -20 -10 -20 -5 0 -10 9 -10 20 0 11 5 20 10 20 6 0 10 -9 10 -20z m30
0 c0 -11 -4 -20 -10 -20 -5 0 -10 9 -10 20 0 11 5 20 10 20 6 0 10 -9 10 -20z
m1630 -16 c0 -13 -4 -24 -10 -24 -5 0 -10 14 -10 31 0 17 4 28 10 24 6 -3 10
-17 10 -31z m60 6 c0 -16 -4 -30 -10 -30 -5 0 -10 14 -10 30 0 17 5 30 10 30
6 0 10 -13 10 -30z m40 0 c0 -16 -4 -30 -10 -30 -11 0 -14 43 -3 53 11 12 13
8 13 -23z m80 -2 c0 -24 -4 -28 -30 -28 -25 0 -30 4 -30 23 0 30 3 33 35 33
21 0 25 -5 25 -28z m65 1 c0 -15 -7 -25 -18 -27 -13 -3 -17 3 -17 26 0 23 4
30 18 28 11 -2 17 -12 17 -27z m215 16 c0 -8 -4 -15 -10 -15 -5 0 -10 7 -10
15 0 8 5 15 10 15 6 0 10 -7 10 -15z m30 0 c0 -8 -4 -15 -10 -15 -5 0 -10 7
-10 15 0 8 5 15 10 15 6 0 10 -7 10 -15z m50 0 c0 -8 -4 -15 -10 -15 -5 0 -10
7 -10 15 0 8 5 15 10 15 6 0 10 -7 10 -15z m125 -1 c0 -5 -10 -10 -22 -12 -16
-2 -23 2 -23 12 0 11 7 15 23 12 12 -1 22 -7 22 -12z m-3215 -25 c0 -24 -4
-28 -22 -25 -16 2 -22 9 -21 24 1 29 0 28 23 29 16 1 20 -4 20 -28z m85 11
c-4 -11 -1 -17 7 -16 7 0 14 -3 14 -9 1 -5 -14 -11 -32 -11 -31 -1 -34 1 -34
26 0 23 4 28 25 28 20 0 24 -4 20 -18z m55 5 c0 -8 -4 -15 -10 -15 -5 0 -10 7
-10 15 0 8 5 15 10 15 6 0 10 -7 10 -15z m-1647 -42 c-4 -10 -2 -14 4 -10 17
10 39 -27 41 -70 2 -37 0 -42 -18 -40 -20 1 -29 27 -10 27 16 0 12 57 -4 63
-11 4 -14 -2 -13 -26 2 -25 -2 -32 -17 -32 -23 0 -30 44 -9 52 8 3 13 15 12
27 -2 31 0 38 11 31 5 -3 6 -13 3 -22z m237 12 c0 -8 -4 -15 -8 -15 -5 0 -9 7
-9 15 0 8 4 15 9 15 4 0 8 -7 8 -15z m98 -2 c-3 -16 -12 -19 -48 -14 -5 0 -10
8 -10 16 0 10 10 15 31 15 24 0 30 -4 27 -17z m52 -4 c0 -12 -4 -17 -11 -14
-6 4 -10 1 -8 -6 3 -28 -1 -39 -16 -39 -8 0 -15 9 -15 20 0 11 5 20 10 20 6 0
10 9 10 20 0 11 7 20 15 20 8 0 15 -9 15 -21z m100 6 c0 -8 -7 -15 -15 -16
-52 -4 -60 -2 -63 14 -3 14 4 17 37 17 30 0 41 -4 41 -15z m4090 -6 c0 -5 -7
-9 -15 -9 -15 0 -20 12 -9 23 8 8 24 -1 24 -14z m148 3 c2 -7 -7 -12 -22 -12
-16 0 -26 6 -26 15 0 18 42 15 48 -3z m-2811 -24 c-3 -7 -5 -2 -5 12 0 14 2
19 5 13 2 -7 2 -19 0 -25z m83 11 c0 -11 -4 -18 -10 -14 -5 3 -7 12 -3 20 7
21 13 19 13 -6z m50 1 c0 -11 -7 -20 -15 -20 -8 0 -15 9 -15 20 0 11 7 20 15
20 8 0 15 -9 15 -20z m30 -1 c0 -11 -4 -17 -10 -14 -5 3 -10 13 -10 21 0 8 5
14 10 14 6 0 10 -9 10 -21z m50 1 c0 -11 -6 -20 -13 -20 -19 0 -27 10 -20 26
8 21 33 17 33 -6z m60 -2 c0 -18 -2 -20 -9 -8 -6 8 -7 18 -5 22 9 14 14 9 14
-14z m70 -4 c0 -8 -4 -14 -10 -14 -5 0 -10 9 -10 21 0 11 5 17 10 14 6 -3 10
-13 10 -21z m40 5 c0 -11 -4 -18 -10 -14 -5 3 -7 12 -3 20 7 21 13 19 13 -6z
m70 7 c0 -8 -4 -18 -10 -21 -5 -3 -10 3 -10 14 0 12 5 21 10 21 6 0 10 -6 10
-14z m-2410 -22 c0 -8 -5 -12 -10 -9 -6 4 -8 11 -5 16 9 14 15 11 15 -7z
m1530 -5 c0 -4 -12 -6 -27 -5 -36 5 -35 4 -29 15 7 10 56 2 56 -10z m50 6 c0
-8 -4 -15 -10 -15 -5 0 -10 7 -10 15 0 8 5 15 10 15 6 0 10 -7 10 -15z m-1297
-1 c9 -10 -4 -34 -19 -34 -8 0 -14 9 -14 20 0 19 19 27 33 14z m57 -14 c0 -11
-4 -20 -10 -20 -5 0 -10 9 -10 20 0 11 5 20 10 20 6 0 10 -9 10 -20z m150 0
c0 -11 -4 -20 -10 -20 -5 0 -10 9 -10 20 0 11 5 20 10 20 6 0 10 -9 10 -20z
m90 0 c0 -16 -7 -20 -30 -20 -18 0 -30 5 -30 13 0 20 10 27 37 27 16 0 23 -6
23 -20z m3580 -10 c0 -16 -4 -30 -10 -30 -5 0 -10 14 -10 30 0 17 5 30 10 30
6 0 10 -13 10 -30z m100 -1 c0 -17 -4 -28 -10 -24 -5 3 -10 17 -10 31 0 13 5
24 10 24 6 0 10 -14 10 -31z m300 16 c0 -8 -4 -15 -10 -15 -5 0 -10 7 -10 15
0 8 5 15 10 15 6 0 10 -7 10 -15z m58 -3 c2 -7 -3 -12 -12 -12 -9 0 -16 7 -16
16 0 17 22 14 28 -4z m202 3 c0 -8 -4 -15 -9 -15 -13 0 -22 16 -14 24 11 11
23 6 23 -9z m-2810 -25 c0 -11 -4 -20 -10 -20 -5 0 -10 9 -10 20 0 11 5 20 10
20 6 0 10 -9 10 -20z m67 0 c1 -14 -4 -20 -18 -20 -12 0 -19 7 -19 20 0 13 7
20 18 20 11 0 18 -8 19 -20z m63 0 c0 -11 -4 -20 -10 -20 -5 0 -10 9 -10 20 0
11 5 20 10 20 6 0 10 -9 10 -20z m50 6 c0 -8 -4 -18 -10 -21 -5 -3 -10 3 -10
14 0 12 5 21 10 21 6 0 10 -6 10 -14z m90 -6 c0 -11 -4 -20 -10 -20 -5 0 -10
9 -10 20 0 11 5 20 10 20 6 0 10 -9 10 -20z m30 -1 c0 -11 -4 -17 -10 -14 -5
3 -10 13 -10 21 0 8 5 14 10 14 6 0 10 -9 10 -21z m27 -11 c-3 -7 -5 -2 -5 12
0 14 2 19 5 13 2 -7 2 -19 0 -25z m-807 12 c0 -5 -7 -10 -15 -10 -8 0 -15 5
-15 10 0 6 7 10 15 10 8 0 15 -4 15 -10z m110 0 c0 -5 -7 -10 -15 -10 -8 0
-15 5 -15 10 0 6 7 10 15 10 8 0 15 -4 15 -10z m2978 -18 c2 -7 -3 -12 -12
-12 -9 0 -16 7 -16 16 0 17 22 14 28 -4z m122 3 c0 -8 -4 -15 -10 -15 -5 0
-10 7 -10 15 0 8 5 15 10 15 6 0 10 -7 10 -15z m50 0 c0 -8 -4 -15 -10 -15 -5
0 -10 7 -10 15 0 8 5 15 10 15 6 0 10 -7 10 -15z m-4510 -17 c0 -16 -3 -19
-11 -11 -6 6 -8 16 -5 22 11 17 16 13 16 -11z m263 8 c7 -16 -1 -26 -20 -26
-7 0 -13 9 -13 20 0 23 25 27 33 6z m955 -27 c0 -19 -4 -29 -11 -26 -6 2 -11
13 -10 25 1 30 2 32 11 32 5 0 9 -14 10 -31z m82 14 c0 -10 -7 -12 -22 -8 -13
4 -18 3 -12 -2 7 -4 10 -22 8 -39 -3 -27 0 -30 19 -28 12 1 25 3 30 3 13 2 7
24 -10 37 -17 13 -17 14 4 20 13 4 20 11 16 20 -3 8 1 14 11 14 11 0 14 -9 13
-34 -3 -28 0 -32 15 -28 10 2 18 11 18 18 0 8 5 14 10 14 6 0 10 -13 10 -30 0
-26 -4 -30 -27 -31 -16 -1 -34 -1 -40 0 -7 1 -13 -7 -13 -17 0 -16 7 -19 40
-18 33 2 40 -1 40 -17 0 -15 -6 -18 -28 -15 -24 3 -28 1 -25 -16 4 -17 -1 -21
-24 -21 -21 0 -30 5 -30 18 -1 9 5 17 13 17 28 0 10 35 -19 38 -22 3 -28 0
-25 -14 2 -9 -3 -19 -9 -21 -8 -3 -13 4 -13 16 0 12 -6 21 -15 21 -8 0 -15 5
-15 10 0 6 7 13 15 16 10 4 15 20 15 49 0 39 2 43 25 43 15 0 25 -6 25 -15z
m590 -13 c0 -11 -4 -20 -10 -20 -5 0 -10 9 -10 20 0 11 5 20 10 20 6 0 10 -9
10 -20z m2570 -5 c0 -8 -4 -15 -10 -15 -5 0 -10 7 -10 15 0 8 5 15 10 15 6 0
10 -7 10 -15z m-4712 -27 c-6 -18 -28 -21 -28 -4 0 9 7 16 16 16 9 0 14 -5 12
-12z m3349 -75 c-2 -16 -4 -5 -4 22 0 28 2 40 4 28 2 -13 2 -35 0 -50z m-3329
46 c-2 -6 -8 -10 -13 -10 -5 0 -11 4 -13 10 -2 6 4 11 13 11 9 0 15 -5 13 -11z
m45 -9 c3 -11 1 -18 -4 -14 -5 3 -20 -7 -34 -23 l-25 -28 13 27 c6 16 15 28
20 28 4 0 7 7 7 15 0 22 17 18 23 -5z m4224 -72 c-3 -8 -6 -5 -6 6 -1 11 2 17
5 13 3 -3 4 -12 1 -19z m-3420 -1 c0 -8 -6 -14 -14 -14 -9 0 -10 4 -2 14 6 7
12 13 14 13 1 0 2 -6 2 -13z m3160 -9 c-3 -8 -6 -5 -6 6 -1 11 2 17 5 13 3 -3
4 -12 1 -19z m20 -10 c-3 -7 -5 -2 -5 12 0 14 2 19 5 13 2 -7 2 -19 0 -25z
m103 -58 c3 24 3 24 7 3 2 -13 11 -23 18 -23 8 0 12 8 10 20 -2 11 0 20 4 20
4 0 12 12 18 28 10 24 11 25 12 5 1 -12 -3 -25 -9 -28 -5 -3 -10 -16 -10 -29
0 -12 -4 -26 -9 -32 -5 -5 -5 -18 0 -29 8 -18 8 -18 6 4 -1 13 4 26 11 28 8 3
12 -10 12 -46 0 -49 -1 -50 -37 -60 -65 -18 -63 -22 -62 112 l1 122 13 -60 c8
-38 13 -51 15 -35z m-3560 70 c0 -5 -5 -10 -11 -10 -5 0 -7 5 -4 10 3 6 8 10
11 10 2 0 4 -4 4 -10z m2768 -15 c0 -14 -4 -25 -9 -25 -5 0 -8 11 -7 25 1 14
5 25 9 25 4 0 7 -11 7 -25z m352 -25 c0 -38 -4 -50 -15 -50 -8 0 -15 5 -15 10
0 15 -97 13 -103 -2 -3 -10 -7 -10 -18 -1 -12 10 -13 -10 -6 -139 4 -83 6
-153 3 -155 -3 -3 -18 4 -35 16 -26 19 -30 29 -33 74 -2 35 -7 51 -15 50 -10
-2 -13 20 -13 87 0 62 -4 90 -12 90 -6 0 -9 2 -6 5 11 11 38 -8 38 -27 0 -18
2 -19 17 -7 14 12 15 12 9 0 -5 -8 -3 -17 5 -22 10 -6 15 -1 19 18 5 25 9 26
73 30 45 3 73 1 83 -8 8 -7 14 -8 13 -3 -3 19 1 84 6 84 3 0 5 -22 5 -50z
m-1870 8 c0 -5 -13 -8 -29 -8 -17 0 -32 3 -34 8 -3 4 10 7 29 7 19 0 34 -3 34
-7z m-1765 -8 c4 -6 -6 -10 -22 -10 -22 0 -25 2 -13 10 19 12 27 12 35 0z
m458 -27 c-3 -7 0 -13 5 -13 6 0 13 8 15 18 3 9 5 -20 6 -65 l1 -83 -39 0
c-33 0 -40 4 -43 23 -2 16 -11 23 -32 25 -43 5 -56 24 -55 79 1 26 4 38 6 25
2 -12 9 -20 14 -17 5 4 9 0 9 -7 0 -10 12 -13 43 -10 45 4 69 24 60 50 -4 14
-3 14 5 3 6 -8 8 -20 5 -28z m816 -23 l3 35 11 -27 c7 -19 18 -28 31 -27 17 1
18 2 4 6 -10 2 -18 9 -18 14 0 9 6 10 73 15 36 2 37 1 22 -16 -12 -14 -13 -20
-4 -26 8 -5 10 -3 4 6 -6 10 -4 12 9 7 10 -4 15 -3 11 3 -4 6 1 7 12 3 14 -6
14 -3 -4 16 -12 13 -26 20 -32 16 -6 -3 -11 -1 -11 4 0 13 40 14 59 2 9 -6 21
-3 34 10 12 10 26 19 31 19 6 0 3 -5 -7 -11 -13 -7 -15 -14 -8 -23 6 -7 6 -17
1 -26 -5 -9 -5 -19 2 -27 8 -10 6 -13 -6 -13 -9 0 -16 4 -16 8 0 20 -50 7
-132 -34 -50 -25 -92 -44 -94 -41 -2 2 0 41 4 88 7 81 7 82 13 34 5 -44 6 -46
8 -15z m811 50 c8 -5 11 -10 7 -10 -4 0 1 -9 12 -21 18 -20 48 -18 36 2 -4 5
-2 9 4 9 5 0 13 -5 16 -10 4 -6 11 -7 17 -4 7 5 8 2 3 -6 -6 -9 0 -10 25 -5
26 6 32 4 28 -7 -4 -9 1 -14 14 -15 16 -2 17 1 8 13 -10 11 -9 14 9 14 19 0
21 -6 21 -60 l0 -60 -55 0 c-52 0 -55 1 -55 24 0 14 -5 28 -10 31 -6 4 -7 11
-4 17 4 6 3 8 -3 5 -5 -3 -32 16 -58 43 -45 46 -52 64 -15 40z m1267 -12 c-3
-8 -6 -5 -6 6 -1 11 2 17 5 13 3 -3 4 -12 1 -19z m-1072 3 c3 -5 1 -12 -5 -16
-5 -3 -10 1 -10 9 0 18 6 21 15 7z m-1395 -51 c0 -5 -5 -10 -11 -10 -5 0 -7 5
-4 10 3 6 8 10 11 10 2 0 4 -4 4 -10z m-705 -30 c3 -5 1 -10 -4 -10 -6 0 -11
5 -11 10 0 6 2 10 4 10 3 0 8 -4 11 -10z m4145 -10 c0 -5 -2 -10 -4 -10 -3 0
-8 5 -11 10 -3 6 -1 10 4 10 6 0 11 -4 11 -10z m140 0 c0 -5 -2 -10 -4 -10 -3
0 -8 5 -11 10 -3 6 -1 10 4 10 6 0 11 -4 11 -10z m140 0 c0 -5 -2 -10 -4 -10
-3 0 -8 5 -11 10 -3 6 -1 10 4 10 6 0 11 -4 11 -10z m-813 -42 c-3 -8 -6 -5
-6 6 -1 11 2 17 5 13 3 -3 4 -12 1 -19z m40 0 c-3 -8 -6 -5 -6 6 -1 11 2 17 5
13 3 -3 4 -12 1 -19z m40 0 c-3 -8 -6 -5 -6 6 -1 11 2 17 5 13 3 -3 4 -12 1
-19z m40 0 c-3 -8 -6 -5 -6 6 -1 11 2 17 5 13 3 -3 4 -12 1 -19z m20 0 c-3 -8
-6 -5 -6 6 -1 11 2 17 5 13 3 -3 4 -12 1 -19z m40 0 c-3 -8 -6 -5 -6 6 -1 11
2 17 5 13 3 -3 4 -12 1 -19z m353 -28 c0 -5 -2 -10 -4 -10 -3 0 -8 5 -11 10
-3 6 -1 10 4 10 6 0 11 -4 11 -10z m140 0 c0 -5 -4 -10 -10 -10 -5 0 -10 5
-10 10 0 6 5 10 10 10 6 0 10 -4 10 -10z m-115 -30 c3 -5 1 -10 -4 -10 -6 0
-11 5 -11 10 0 6 2 10 4 10 3 0 8 -4 11 -10z m255 0 c0 -5 -5 -10 -11 -10 -5
0 -7 5 -4 10 3 6 8 10 11 10 2 0 4 -4 4 -10z m-2660 -40 c0 -5 -2 -10 -4 -10
-3 0 -8 5 -11 10 -3 6 -1 10 4 10 6 0 11 -4 11 -10z m2660 0 c0 -5 -4 -10 -10
-10 -5 0 -10 5 -10 10 0 6 5 10 10 10 6 0 10 -4 10 -10z m30 6 c0 -3 -4 -8
-10 -11 -5 -3 -10 -1 -10 4 0 6 5 11 10 11 6 0 10 -2 10 -4z m-2123 -22 c-3
-3 -12 -4 -19 -1 -8 3 -5 6 6 6 11 1 17 -2 13 -5z m1838 -14 c3 -5 1 -10 -4
-10 -6 0 -11 5 -11 10 0 6 2 10 4 10 3 0 8 -4 11 -10z m140 0 c3 -5 1 -10 -4
-10 -6 0 -11 5 -11 10 0 6 2 10 4 10 3 0 8 -4 11 -10z m-538 -52 c-3 -8 -6 -5
-6 6 -1 11 2 17 5 13 3 -3 4 -12 1 -19z m20 0 c-3 -8 -6 -5 -6 6 -1 11 2 17 5
13 3 -3 4 -12 1 -19z m353 12 c0 -5 -2 -10 -4 -10 -3 0 -8 5 -11 10 -3 6 -1
10 4 10 6 0 11 -4 11 -10z m140 0 c0 -5 -4 -10 -10 -10 -5 0 -10 5 -10 10 0 6
5 10 10 10 6 0 10 -4 10 -10z m30 6 c0 -3 -4 -8 -10 -11 -5 -3 -10 -1 -10 4 0
6 5 11 10 11 6 0 10 -2 10 -4z m110 -6 c0 -5 -4 -10 -10 -10 -5 0 -10 5 -10
10 0 6 5 10 10 10 6 0 10 -4 10 -10z m-4420 -10 c0 -5 -2 -10 -4 -10 -3 0 -8
5 -11 10 -3 6 -1 10 4 10 6 0 11 -4 11 -10z m4047 -32 c-3 -8 -6 -5 -6 6 -1
11 2 17 5 13 3 -3 4 -12 1 -19z m93 12 c0 -5 -5 -10 -11 -10 -5 0 -7 5 -4 10
3 6 8 10 11 10 2 0 4 -4 4 -10z m47 -12 c-3 -8 -6 -5 -6 6 -1 11 2 17 5 13 3
-3 4 -12 1 -19z m30 0 c-3 -8 -6 -5 -6 6 -1 11 2 17 5 13 3 -3 4 -12 1 -19z
m228 12 c3 -5 1 -10 -4 -10 -6 0 -11 5 -11 10 0 6 2 10 4 10 3 0 8 -4 11 -10z
m-4678 -16 c-3 -3 -12 -4 -19 -1 -8 3 -5 6 6 6 11 1 17 -2 13 -5z m1203 -4 c0
-5 -2 -10 -4 -10 -3 0 -8 5 -11 10 -3 6 -1 10 4 10 6 0 11 -4 11 -10z m667
-12 c-3 -8 -6 -5 -6 6 -1 11 2 17 5 13 3 -3 4 -12 1 -19z m160 0 c-3 -8 -6 -5
-6 6 -1 11 2 17 5 13 3 -3 4 -12 1 -19z m2343 -8 c0 -5 -4 -10 -10 -10 -5 0
-10 5 -10 10 0 6 5 10 10 10 6 0 10 -4 10 -10z m140 0 c0 -5 -4 -10 -10 -10
-5 0 -10 5 -10 10 0 6 5 10 10 10 6 0 10 -4 10 -10z m-203 -42 c-3 -8 -6 -5
-6 6 -1 11 2 17 5 13 3 -3 4 -12 1 -19z m110 0 c-3 -8 -6 -5 -6 6 -1 11 2 17
5 13 3 -3 4 -12 1 -19z m140 0 c-3 -8 -6 -5 -6 6 -1 11 2 17 5 13 3 -3 4 -12
1 -19z m60 0 c-3 -8 -6 -5 -6 6 -1 11 2 17 5 13 3 -3 4 -12 1 -19z m-3167 -18
c0 -5 -4 -10 -10 -10 -5 0 -10 5 -10 10 0 6 5 10 10 10 6 0 10 -4 10 -10z
m100 0 c0 -5 -5 -10 -11 -10 -5 0 -7 5 -4 10 3 6 8 10 11 10 2 0 4 -4 4 -10z
m50 0 c0 -5 -5 -10 -11 -10 -5 0 -7 5 -4 10 3 6 8 10 11 10 2 0 4 -4 4 -10z
m2800 -10 c0 -5 -4 -10 -10 -10 -5 0 -10 5 -10 10 0 6 5 10 10 10 6 0 10 -4
10 -10z m110 0 c0 -5 -4 -10 -10 -10 -5 0 -10 5 -10 10 0 6 5 10 10 10 6 0 10
-4 10 -10z m-63 -42 c-3 -8 -6 -5 -6 6 -1 11 2 17 5 13 3 -3 4 -12 1 -19z m30
0 c-3 -8 -6 -5 -6 6 -1 11 2 17 5 13 3 -3 4 -12 1 -19z"/>
<path d="M1550 899 c0 -5 5 -7 10 -4 6 3 10 8 10 11 0 2 -4 4 -10 4 -5 0 -10
-5 -10 -11z"/>
<path d="M1630 900 c0 -5 5 -10 10 -10 6 0 10 5 10 10 0 6 -4 10 -10 10 -5 0
-10 -4 -10 -10z"/>
<path d="M1605 550 c-3 -5 -13 -7 -23 -4 -15 5 -15 4 1 -6 9 -6 15 -15 12 -21
-3 -5 1 -6 9 -3 9 3 16 15 16 25 0 21 -6 24 -15 9z"/>
<path d="M2277 533 c-13 -12 -7 -22 12 -20 15 1 17 4 9 14 -12 15 -13 15 -21
6z"/>
</g>
</svg>
